<mxfile host="app.diagrams.net" modified="2023-03-18T11:49:40.331Z" agent="5.0 (Windows NT 10.0; Win64; x64) AppleWebKit/537.36 (KHTML, like Gecko) Chrome/111.0.0.0 Safari/537.36 Edg/111.0.1661.41" etag="QxjB3nX_CvTH0MdSW95V" version="21.0.6" type="github">
  <diagram name="第 1 页" id="Cv774QJJd_vX_6eWjNI-">
    <mxGraphModel dx="2080" dy="1098" grid="0" gridSize="10" guides="1" tooltips="1" connect="1" arrows="1" fold="1" page="1" pageScale="1" pageWidth="2339" pageHeight="3300" math="0" shadow="0">
      <root>
        <mxCell id="0" />
        <mxCell id="1" parent="0" />
        <mxCell id="WhPX4swOmzl25VGrsaIu-216" style="edgeStyle=orthogonalEdgeStyle;rounded=0;orthogonalLoop=1;jettySize=auto;html=1;entryX=0;entryY=0.5;entryDx=0;entryDy=0;" edge="1" parent="1" source="WhPX4swOmzl25VGrsaIu-2" target="WhPX4swOmzl25VGrsaIu-165">
          <mxGeometry relative="1" as="geometry">
            <Array as="points">
              <mxPoint x="394" y="753" />
              <mxPoint x="394" y="834" />
            </Array>
          </mxGeometry>
        </mxCell>
        <mxCell id="WhPX4swOmzl25VGrsaIu-217" style="edgeStyle=orthogonalEdgeStyle;rounded=0;orthogonalLoop=1;jettySize=auto;html=1;entryX=0;entryY=0.5;entryDx=0;entryDy=0;" edge="1" parent="1" source="WhPX4swOmzl25VGrsaIu-2" target="WhPX4swOmzl25VGrsaIu-191">
          <mxGeometry relative="1" as="geometry">
            <Array as="points">
              <mxPoint x="212" y="767" />
              <mxPoint x="385" y="767" />
              <mxPoint x="385" y="1233" />
            </Array>
          </mxGeometry>
        </mxCell>
        <mxCell id="WhPX4swOmzl25VGrsaIu-2" value="INIT" style="ellipse;whiteSpace=wrap;html=1;aspect=fixed;" vertex="1" parent="1">
          <mxGeometry x="181" y="695" width="62" height="62" as="geometry" />
        </mxCell>
        <mxCell id="WhPX4swOmzl25VGrsaIu-3" value="" style="endArrow=classic;html=1;rounded=0;" edge="1" parent="1">
          <mxGeometry width="50" height="50" relative="1" as="geometry">
            <mxPoint x="113" y="726" as="sourcePoint" />
            <mxPoint x="181" y="726" as="targetPoint" />
          </mxGeometry>
        </mxCell>
        <mxCell id="WhPX4swOmzl25VGrsaIu-4" style="edgeStyle=orthogonalEdgeStyle;rounded=0;orthogonalLoop=1;jettySize=auto;html=1;exitX=1;exitY=0.5;exitDx=0;exitDy=0;" edge="1" parent="1" source="WhPX4swOmzl25VGrsaIu-2" target="WhPX4swOmzl25VGrsaIu-5">
          <mxGeometry relative="1" as="geometry">
            <mxPoint x="681" y="296" as="sourcePoint" />
            <Array as="points">
              <mxPoint x="263" y="726" />
              <mxPoint x="263" y="596" />
            </Array>
          </mxGeometry>
        </mxCell>
        <mxCell id="WhPX4swOmzl25VGrsaIu-5" value="INIT" style="ellipse;whiteSpace=wrap;html=1;aspect=fixed;" vertex="1" parent="1">
          <mxGeometry x="703" y="565" width="62" height="62" as="geometry" />
        </mxCell>
        <mxCell id="WhPX4swOmzl25VGrsaIu-6" value="ID" style="ellipse;whiteSpace=wrap;html=1;aspect=fixed;" vertex="1" parent="1">
          <mxGeometry x="708.25" y="570.25" width="51.5" height="51.5" as="geometry" />
        </mxCell>
        <mxCell id="WhPX4swOmzl25VGrsaIu-7" value="A~Z|a~z|_" style="text;html=1;align=center;verticalAlign=middle;resizable=0;points=[];autosize=1;strokeColor=none;fillColor=none;" vertex="1" parent="1">
          <mxGeometry x="586" y="566" width="73" height="26" as="geometry" />
        </mxCell>
        <mxCell id="WhPX4swOmzl25VGrsaIu-8" value="0~9|A~Z|a~z|_" style="text;html=1;align=center;verticalAlign=middle;resizable=0;points=[];autosize=1;strokeColor=none;fillColor=none;" vertex="1" parent="1">
          <mxGeometry x="740" y="493" width="96" height="26" as="geometry" />
        </mxCell>
        <mxCell id="WhPX4swOmzl25VGrsaIu-9" value="" style="curved=1;endArrow=classic;html=1;rounded=0;exitX=0.233;exitY=0.07;exitDx=0;exitDy=0;exitPerimeter=0;entryX=0.783;entryY=0.098;entryDx=0;entryDy=0;entryPerimeter=0;" edge="1" parent="1" source="WhPX4swOmzl25VGrsaIu-5" target="WhPX4swOmzl25VGrsaIu-5">
          <mxGeometry width="50" height="50" relative="1" as="geometry">
            <mxPoint x="697" y="544" as="sourcePoint" />
            <mxPoint x="736" y="548" as="targetPoint" />
            <Array as="points">
              <mxPoint x="712" y="541" />
              <mxPoint x="719" y="528" />
              <mxPoint x="733" y="519" />
              <mxPoint x="757" y="531" />
            </Array>
          </mxGeometry>
        </mxCell>
        <mxCell id="WhPX4swOmzl25VGrsaIu-10" style="edgeStyle=orthogonalEdgeStyle;rounded=0;orthogonalLoop=1;jettySize=auto;html=1;entryX=-0.035;entryY=0.617;entryDx=0;entryDy=0;entryPerimeter=0;exitX=1;exitY=0.5;exitDx=0;exitDy=0;" edge="1" parent="1" source="WhPX4swOmzl25VGrsaIu-2" target="WhPX4swOmzl25VGrsaIu-29">
          <mxGeometry relative="1" as="geometry">
            <Array as="points">
              <mxPoint x="243" y="740" />
              <mxPoint x="814" y="740" />
              <mxPoint x="814" y="1710" />
              <mxPoint x="1048" y="1710" />
            </Array>
            <mxPoint x="476" y="1428.9654165965164" as="sourcePoint" />
          </mxGeometry>
        </mxCell>
        <mxCell id="WhPX4swOmzl25VGrsaIu-11" value="1~9" style="edgeLabel;html=1;align=center;verticalAlign=middle;resizable=0;points=[];" vertex="1" connectable="0" parent="WhPX4swOmzl25VGrsaIu-10">
          <mxGeometry x="-0.463" y="1" relative="1" as="geometry">
            <mxPoint x="80" y="366" as="offset" />
          </mxGeometry>
        </mxCell>
        <mxCell id="WhPX4swOmzl25VGrsaIu-12" style="edgeStyle=orthogonalEdgeStyle;rounded=0;orthogonalLoop=1;jettySize=auto;html=1;entryX=0;entryY=0.5;entryDx=0;entryDy=0;jumpStyle=arc;exitX=1;exitY=0.5;exitDx=0;exitDy=0;" edge="1" parent="1" source="WhPX4swOmzl25VGrsaIu-2" target="WhPX4swOmzl25VGrsaIu-24">
          <mxGeometry relative="1" as="geometry">
            <Array as="points">
              <mxPoint x="243" y="729" />
              <mxPoint x="835" y="729" />
              <mxPoint x="835" y="1300" />
              <mxPoint x="1060" y="1300" />
            </Array>
            <mxPoint x="476" y="1367.094583403484" as="sourcePoint" />
          </mxGeometry>
        </mxCell>
        <mxCell id="WhPX4swOmzl25VGrsaIu-14" style="edgeStyle=orthogonalEdgeStyle;rounded=0;orthogonalLoop=1;jettySize=auto;html=1;jumpStyle=arc;" edge="1" parent="1" source="WhPX4swOmzl25VGrsaIu-15" target="WhPX4swOmzl25VGrsaIu-40">
          <mxGeometry relative="1" as="geometry" />
        </mxCell>
        <mxCell id="WhPX4swOmzl25VGrsaIu-15" value="1" style="ellipse;whiteSpace=wrap;html=1;aspect=fixed;" vertex="1" parent="1">
          <mxGeometry x="1057" y="1267.28" width="62" height="62" as="geometry" />
        </mxCell>
        <mxCell id="WhPX4swOmzl25VGrsaIu-17" value="0" style="text;html=1;align=center;verticalAlign=middle;resizable=0;points=[];autosize=1;strokeColor=none;fillColor=none;" vertex="1" parent="1">
          <mxGeometry x="836" y="1089.5" width="25" height="26" as="geometry" />
        </mxCell>
        <mxCell id="WhPX4swOmzl25VGrsaIu-18" style="edgeStyle=orthogonalEdgeStyle;rounded=0;orthogonalLoop=1;jettySize=auto;html=1;entryX=0;entryY=0.5;entryDx=0;entryDy=0;" edge="1" parent="1" source="WhPX4swOmzl25VGrsaIu-24" target="WhPX4swOmzl25VGrsaIu-31">
          <mxGeometry relative="1" as="geometry">
            <Array as="points">
              <mxPoint x="1090" y="1114" />
              <mxPoint x="1211" y="1114" />
            </Array>
          </mxGeometry>
        </mxCell>
        <mxCell id="WhPX4swOmzl25VGrsaIu-19" style="edgeStyle=orthogonalEdgeStyle;rounded=0;orthogonalLoop=1;jettySize=auto;html=1;" edge="1" parent="1" source="WhPX4swOmzl25VGrsaIu-24" target="WhPX4swOmzl25VGrsaIu-34">
          <mxGeometry relative="1" as="geometry">
            <Array as="points">
              <mxPoint x="1111" y="1208" />
            </Array>
          </mxGeometry>
        </mxCell>
        <mxCell id="WhPX4swOmzl25VGrsaIu-20" style="edgeStyle=orthogonalEdgeStyle;rounded=0;orthogonalLoop=1;jettySize=auto;html=1;" edge="1" parent="1" source="WhPX4swOmzl25VGrsaIu-24" target="WhPX4swOmzl25VGrsaIu-41">
          <mxGeometry relative="1" as="geometry">
            <Array as="points">
              <mxPoint x="1112" y="1416" />
            </Array>
          </mxGeometry>
        </mxCell>
        <mxCell id="WhPX4swOmzl25VGrsaIu-21" style="edgeStyle=orthogonalEdgeStyle;rounded=0;orthogonalLoop=1;jettySize=auto;html=1;" edge="1" parent="1" source="WhPX4swOmzl25VGrsaIu-24" target="WhPX4swOmzl25VGrsaIu-70">
          <mxGeometry relative="1" as="geometry">
            <mxPoint x="1228.0006468825022" y="1552.0588235294117" as="targetPoint" />
            <Array as="points">
              <mxPoint x="1088" y="1580" />
            </Array>
          </mxGeometry>
        </mxCell>
        <mxCell id="WhPX4swOmzl25VGrsaIu-22" style="edgeStyle=orthogonalEdgeStyle;rounded=0;orthogonalLoop=1;jettySize=auto;html=1;entryX=0.147;entryY=0.867;entryDx=0;entryDy=0;entryPerimeter=0;" edge="1" parent="1" source="WhPX4swOmzl25VGrsaIu-24" target="WhPX4swOmzl25VGrsaIu-130">
          <mxGeometry relative="1" as="geometry">
            <Array as="points">
              <mxPoint x="1061" y="845" />
            </Array>
          </mxGeometry>
        </mxCell>
        <mxCell id="WhPX4swOmzl25VGrsaIu-23" style="edgeStyle=orthogonalEdgeStyle;rounded=0;orthogonalLoop=1;jettySize=auto;html=1;entryX=1;entryY=1;entryDx=0;entryDy=0;jumpStyle=arc;" edge="1" parent="1" source="WhPX4swOmzl25VGrsaIu-24" target="WhPX4swOmzl25VGrsaIu-143">
          <mxGeometry relative="1" as="geometry">
            <Array as="points">
              <mxPoint x="915" y="1290" />
            </Array>
          </mxGeometry>
        </mxCell>
        <mxCell id="WhPX4swOmzl25VGrsaIu-24" value="14" style="ellipse;whiteSpace=wrap;html=1;aspect=fixed;" vertex="1" parent="1">
          <mxGeometry x="1059.75" y="1270.03" width="56.5" height="56.5" as="geometry" />
        </mxCell>
        <mxCell id="WhPX4swOmzl25VGrsaIu-25" style="edgeStyle=orthogonalEdgeStyle;rounded=0;orthogonalLoop=1;jettySize=auto;html=1;entryX=0.5;entryY=1;entryDx=0;entryDy=0;jumpStyle=arc;" edge="1" parent="1" source="WhPX4swOmzl25VGrsaIu-29" target="WhPX4swOmzl25VGrsaIu-34">
          <mxGeometry relative="1" as="geometry" />
        </mxCell>
        <mxCell id="WhPX4swOmzl25VGrsaIu-26" style="edgeStyle=orthogonalEdgeStyle;rounded=0;orthogonalLoop=1;jettySize=auto;html=1;entryX=0.644;entryY=0.96;entryDx=0;entryDy=0;entryPerimeter=0;jumpStyle=arc;" edge="1" parent="1" source="WhPX4swOmzl25VGrsaIu-29" target="WhPX4swOmzl25VGrsaIu-40">
          <mxGeometry relative="1" as="geometry">
            <mxPoint x="1704" y="1362" as="targetPoint" />
            <Array as="points">
              <mxPoint x="1710" y="1711" />
            </Array>
          </mxGeometry>
        </mxCell>
        <mxCell id="WhPX4swOmzl25VGrsaIu-27" value="l" style="edgeLabel;html=1;align=center;verticalAlign=middle;resizable=0;points=[];" vertex="1" connectable="0" parent="WhPX4swOmzl25VGrsaIu-26">
          <mxGeometry x="-0.5413" y="1" relative="1" as="geometry">
            <mxPoint x="-58" y="15" as="offset" />
          </mxGeometry>
        </mxCell>
        <mxCell id="WhPX4swOmzl25VGrsaIu-28" style="edgeStyle=orthogonalEdgeStyle;rounded=0;orthogonalLoop=1;jettySize=auto;html=1;jumpStyle=arc;" edge="1" parent="1" source="WhPX4swOmzl25VGrsaIu-29" target="WhPX4swOmzl25VGrsaIu-143">
          <mxGeometry relative="1" as="geometry" />
        </mxCell>
        <mxCell id="WhPX4swOmzl25VGrsaIu-29" value="" style="ellipse;whiteSpace=wrap;html=1;aspect=fixed;" vertex="1" parent="1">
          <mxGeometry x="1050" y="1670" width="62" height="62" as="geometry" />
        </mxCell>
        <mxCell id="WhPX4swOmzl25VGrsaIu-30" style="edgeStyle=orthogonalEdgeStyle;rounded=0;orthogonalLoop=1;jettySize=auto;html=1;" edge="1" parent="1" source="WhPX4swOmzl25VGrsaIu-31" target="WhPX4swOmzl25VGrsaIu-50">
          <mxGeometry relative="1" as="geometry" />
        </mxCell>
        <mxCell id="WhPX4swOmzl25VGrsaIu-31" value="11" style="ellipse;whiteSpace=wrap;html=1;aspect=fixed;" vertex="1" parent="1">
          <mxGeometry x="1229" y="1086" width="56.5" height="56.5" as="geometry" />
        </mxCell>
        <mxCell id="WhPX4swOmzl25VGrsaIu-32" style="edgeStyle=orthogonalEdgeStyle;rounded=0;orthogonalLoop=1;jettySize=auto;html=1;entryX=0;entryY=0.5;entryDx=0;entryDy=0;" edge="1" parent="1" source="WhPX4swOmzl25VGrsaIu-34" target="WhPX4swOmzl25VGrsaIu-85">
          <mxGeometry relative="1" as="geometry">
            <mxPoint x="1875" y="1001" as="targetPoint" />
            <Array as="points">
              <mxPoint x="1498" y="1052" />
            </Array>
          </mxGeometry>
        </mxCell>
        <mxCell id="WhPX4swOmzl25VGrsaIu-33" style="edgeStyle=orthogonalEdgeStyle;rounded=0;orthogonalLoop=1;jettySize=auto;html=1;" edge="1" parent="1" source="WhPX4swOmzl25VGrsaIu-34" target="WhPX4swOmzl25VGrsaIu-87">
          <mxGeometry relative="1" as="geometry" />
        </mxCell>
        <mxCell id="WhPX4swOmzl25VGrsaIu-34" value="" style="ellipse;whiteSpace=wrap;html=1;aspect=fixed;" vertex="1" parent="1">
          <mxGeometry x="1470" y="1181" width="56.5" height="56.5" as="geometry" />
        </mxCell>
        <mxCell id="WhPX4swOmzl25VGrsaIu-35" style="edgeStyle=orthogonalEdgeStyle;rounded=0;orthogonalLoop=1;jettySize=auto;html=1;entryX=0.274;entryY=0.98;entryDx=0;entryDy=0;entryPerimeter=0;exitX=1;exitY=0.5;exitDx=0;exitDy=0;jumpStyle=arc;" edge="1" parent="1" source="WhPX4swOmzl25VGrsaIu-41" target="WhPX4swOmzl25VGrsaIu-34">
          <mxGeometry relative="1" as="geometry">
            <mxPoint x="1447" y="1241" as="targetPoint" />
          </mxGeometry>
        </mxCell>
        <mxCell id="WhPX4swOmzl25VGrsaIu-36" style="edgeStyle=orthogonalEdgeStyle;rounded=0;orthogonalLoop=1;jettySize=auto;html=1;exitX=1;exitY=1;exitDx=0;exitDy=0;jumpStyle=arc;" edge="1" parent="1" source="WhPX4swOmzl25VGrsaIu-59" target="WhPX4swOmzl25VGrsaIu-70">
          <mxGeometry relative="1" as="geometry" />
        </mxCell>
        <mxCell id="WhPX4swOmzl25VGrsaIu-37" value="L" style="edgeLabel;html=1;align=center;verticalAlign=middle;resizable=0;points=[];" vertex="1" connectable="0" parent="WhPX4swOmzl25VGrsaIu-36">
          <mxGeometry x="0.0078" y="-2" relative="1" as="geometry">
            <mxPoint x="-9" y="20" as="offset" />
          </mxGeometry>
        </mxCell>
        <mxCell id="WhPX4swOmzl25VGrsaIu-38" style="edgeStyle=orthogonalEdgeStyle;rounded=0;orthogonalLoop=1;jettySize=auto;html=1;jumpStyle=arc;" edge="1" parent="1" source="WhPX4swOmzl25VGrsaIu-40" target="WhPX4swOmzl25VGrsaIu-79">
          <mxGeometry relative="1" as="geometry" />
        </mxCell>
        <mxCell id="WhPX4swOmzl25VGrsaIu-39" style="edgeStyle=orthogonalEdgeStyle;rounded=0;orthogonalLoop=1;jettySize=auto;html=1;" edge="1" parent="1" source="WhPX4swOmzl25VGrsaIu-40" target="WhPX4swOmzl25VGrsaIu-75">
          <mxGeometry relative="1" as="geometry">
            <Array as="points">
              <mxPoint x="1727" y="1337" />
              <mxPoint x="2098" y="1337" />
            </Array>
          </mxGeometry>
        </mxCell>
        <mxCell id="WhPX4swOmzl25VGrsaIu-40" value="" style="ellipse;whiteSpace=wrap;html=1;aspect=fixed;" vertex="1" parent="1">
          <mxGeometry x="1670" y="1267.28" width="62" height="62" as="geometry" />
        </mxCell>
        <mxCell id="WhPX4swOmzl25VGrsaIu-41" value="" style="ellipse;whiteSpace=wrap;html=1;aspect=fixed;" vertex="1" parent="1">
          <mxGeometry x="1228" y="1388" width="56.5" height="56.5" as="geometry" />
        </mxCell>
        <mxCell id="WhPX4swOmzl25VGrsaIu-42" value="x|X" style="text;html=1;align=center;verticalAlign=middle;resizable=0;points=[];autosize=1;strokeColor=none;fillColor=none;" vertex="1" parent="1">
          <mxGeometry x="1144" y="1083" width="35" height="26" as="geometry" />
        </mxCell>
        <mxCell id="WhPX4swOmzl25VGrsaIu-43" value="u|U" style="text;html=1;align=center;verticalAlign=middle;resizable=0;points=[];autosize=1;strokeColor=none;fillColor=none;" vertex="1" parent="1">
          <mxGeometry x="1189" y="1181" width="36" height="26" as="geometry" />
        </mxCell>
        <mxCell id="WhPX4swOmzl25VGrsaIu-44" value="l" style="text;html=1;align=center;verticalAlign=middle;resizable=0;points=[];autosize=1;strokeColor=none;fillColor=none;" vertex="1" parent="1">
          <mxGeometry x="1156.5" y="1267.28" width="21" height="26" as="geometry" />
        </mxCell>
        <mxCell id="WhPX4swOmzl25VGrsaIu-45" value="0~7" style="text;html=1;align=center;verticalAlign=middle;resizable=0;points=[];autosize=1;strokeColor=none;fillColor=none;" vertex="1" parent="1">
          <mxGeometry x="1151" y="1383" width="38" height="26" as="geometry" />
        </mxCell>
        <mxCell id="WhPX4swOmzl25VGrsaIu-46" value="L" style="text;html=1;align=center;verticalAlign=middle;resizable=0;points=[];autosize=1;strokeColor=none;fillColor=none;" vertex="1" parent="1">
          <mxGeometry x="1124" y="1552" width="25" height="26" as="geometry" />
        </mxCell>
        <mxCell id="WhPX4swOmzl25VGrsaIu-47" style="edgeStyle=orthogonalEdgeStyle;rounded=0;orthogonalLoop=1;jettySize=auto;html=1;" edge="1" parent="1" source="WhPX4swOmzl25VGrsaIu-50" target="WhPX4swOmzl25VGrsaIu-104">
          <mxGeometry relative="1" as="geometry" />
        </mxCell>
        <mxCell id="WhPX4swOmzl25VGrsaIu-48" style="edgeStyle=orthogonalEdgeStyle;rounded=0;orthogonalLoop=1;jettySize=auto;html=1;" edge="1" parent="1" source="WhPX4swOmzl25VGrsaIu-50" target="WhPX4swOmzl25VGrsaIu-108">
          <mxGeometry relative="1" as="geometry">
            <Array as="points">
              <mxPoint x="1470" y="1089" />
            </Array>
          </mxGeometry>
        </mxCell>
        <mxCell id="WhPX4swOmzl25VGrsaIu-49" value="." style="edgeLabel;html=1;align=center;verticalAlign=middle;resizable=0;points=[];" vertex="1" connectable="0" parent="WhPX4swOmzl25VGrsaIu-48">
          <mxGeometry x="0.233" y="-2" relative="1" as="geometry">
            <mxPoint x="-48" y="167" as="offset" />
          </mxGeometry>
        </mxCell>
        <mxCell id="WhPX4swOmzl25VGrsaIu-50" value="" style="ellipse;whiteSpace=wrap;html=1;aspect=fixed;" vertex="1" parent="1">
          <mxGeometry x="1389" y="1086" width="56.5" height="56.5" as="geometry" />
        </mxCell>
        <mxCell id="WhPX4swOmzl25VGrsaIu-51" style="edgeStyle=orthogonalEdgeStyle;rounded=0;orthogonalLoop=1;jettySize=auto;html=1;entryX=0;entryY=0;entryDx=0;entryDy=0;" edge="1" parent="1" source="WhPX4swOmzl25VGrsaIu-54" target="WhPX4swOmzl25VGrsaIu-34">
          <mxGeometry relative="1" as="geometry" />
        </mxCell>
        <mxCell id="WhPX4swOmzl25VGrsaIu-52" style="edgeStyle=orthogonalEdgeStyle;rounded=0;orthogonalLoop=1;jettySize=auto;html=1;jumpStyle=arc;" edge="1" parent="1" source="WhPX4swOmzl25VGrsaIu-54" target="WhPX4swOmzl25VGrsaIu-40">
          <mxGeometry relative="1" as="geometry">
            <Array as="points">
              <mxPoint x="1701" y="1105" />
            </Array>
          </mxGeometry>
        </mxCell>
        <mxCell id="WhPX4swOmzl25VGrsaIu-53" style="edgeStyle=orthogonalEdgeStyle;rounded=0;orthogonalLoop=1;jettySize=auto;html=1;jumpStyle=arc;" edge="1" parent="1" source="WhPX4swOmzl25VGrsaIu-54" target="WhPX4swOmzl25VGrsaIu-70">
          <mxGeometry relative="1" as="geometry">
            <Array as="points">
              <mxPoint x="1796" y="1095" />
            </Array>
          </mxGeometry>
        </mxCell>
        <mxCell id="WhPX4swOmzl25VGrsaIu-54" value="12" style="ellipse;whiteSpace=wrap;html=1;aspect=fixed;" vertex="1" parent="1">
          <mxGeometry x="1392.5" y="1089.5" width="49.5" height="49.5" as="geometry" />
        </mxCell>
        <mxCell id="WhPX4swOmzl25VGrsaIu-55" value="0~f" style="text;html=1;align=center;verticalAlign=middle;resizable=0;points=[];autosize=1;strokeColor=none;fillColor=none;" vertex="1" parent="1">
          <mxGeometry x="1313" y="1086" width="35" height="26" as="geometry" />
        </mxCell>
        <mxCell id="WhPX4swOmzl25VGrsaIu-56" value="u|U" style="text;html=1;align=center;verticalAlign=middle;resizable=0;points=[];autosize=1;strokeColor=none;fillColor=none;" vertex="1" parent="1">
          <mxGeometry x="1445.5" y="1129" width="36" height="26" as="geometry" />
        </mxCell>
        <mxCell id="WhPX4swOmzl25VGrsaIu-57" value="u|U" style="text;html=1;align=center;verticalAlign=middle;resizable=0;points=[];autosize=1;strokeColor=none;fillColor=none;" vertex="1" parent="1">
          <mxGeometry x="1452" y="1373" width="36" height="26" as="geometry" />
        </mxCell>
        <mxCell id="WhPX4swOmzl25VGrsaIu-58" style="edgeStyle=orthogonalEdgeStyle;rounded=0;orthogonalLoop=1;jettySize=auto;html=1;entryX=0.5;entryY=1;entryDx=0;entryDy=0;jumpStyle=arc;" edge="1" parent="1" source="WhPX4swOmzl25VGrsaIu-59" target="WhPX4swOmzl25VGrsaIu-40">
          <mxGeometry relative="1" as="geometry">
            <mxPoint x="1702.75" y="1360.5" as="targetPoint" />
            <Array as="points">
              <mxPoint x="1701" y="1425" />
            </Array>
          </mxGeometry>
        </mxCell>
        <mxCell id="WhPX4swOmzl25VGrsaIu-59" value="20" style="ellipse;whiteSpace=wrap;html=1;aspect=fixed;" vertex="1" parent="1">
          <mxGeometry x="1231.5" y="1391.5" width="49.5" height="49.5" as="geometry" />
        </mxCell>
        <mxCell id="WhPX4swOmzl25VGrsaIu-60" value="u|U" style="text;html=1;align=center;verticalAlign=middle;resizable=0;points=[];autosize=1;strokeColor=none;fillColor=none;" vertex="1" parent="1">
          <mxGeometry x="1260" y="1672.75" width="36" height="26" as="geometry" />
        </mxCell>
        <mxCell id="WhPX4swOmzl25VGrsaIu-61" value="l" style="text;html=1;align=center;verticalAlign=middle;resizable=0;points=[];autosize=1;strokeColor=none;fillColor=none;" vertex="1" parent="1">
          <mxGeometry x="1695" y="1174" width="21" height="26" as="geometry" />
        </mxCell>
        <mxCell id="WhPX4swOmzl25VGrsaIu-62" value="" style="curved=1;endArrow=classic;html=1;rounded=0;exitX=1;exitY=0;exitDx=0;exitDy=0;entryX=0;entryY=0;entryDx=0;entryDy=0;" edge="1" parent="1">
          <mxGeometry width="50" height="50" relative="1" as="geometry">
            <mxPoint x="1102" y="1678" as="sourcePoint" />
            <mxPoint x="1062" y="1678" as="targetPoint" />
            <Array as="points">
              <mxPoint x="1104" y="1648" />
              <mxPoint x="1084" y="1636" />
              <mxPoint x="1066" y="1649" />
            </Array>
          </mxGeometry>
        </mxCell>
        <mxCell id="WhPX4swOmzl25VGrsaIu-63" value="0~9" style="text;html=1;align=center;verticalAlign=middle;resizable=0;points=[];autosize=1;strokeColor=none;fillColor=none;" vertex="1" parent="1">
          <mxGeometry x="1062" y="1617" width="38" height="26" as="geometry" />
        </mxCell>
        <mxCell id="WhPX4swOmzl25VGrsaIu-64" style="edgeStyle=orthogonalEdgeStyle;rounded=0;orthogonalLoop=1;jettySize=auto;html=1;" edge="1" parent="1" source="WhPX4swOmzl25VGrsaIu-67" target="WhPX4swOmzl25VGrsaIu-70">
          <mxGeometry relative="1" as="geometry">
            <Array as="points">
              <mxPoint x="1081" y="1756" />
              <mxPoint x="1786" y="1756" />
            </Array>
          </mxGeometry>
        </mxCell>
        <mxCell id="WhPX4swOmzl25VGrsaIu-65" style="edgeStyle=orthogonalEdgeStyle;rounded=0;orthogonalLoop=1;jettySize=auto;html=1;entryX=0;entryY=0.5;entryDx=0;entryDy=0;jumpStyle=arc;" edge="1" parent="1" source="WhPX4swOmzl25VGrsaIu-67" target="WhPX4swOmzl25VGrsaIu-130">
          <mxGeometry relative="1" as="geometry">
            <Array as="points">
              <mxPoint x="1019" y="1687" />
              <mxPoint x="1019" y="824" />
              <mxPoint x="1053" y="824" />
            </Array>
          </mxGeometry>
        </mxCell>
        <mxCell id="WhPX4swOmzl25VGrsaIu-66" value="." style="edgeLabel;html=1;align=center;verticalAlign=middle;resizable=0;points=[];" vertex="1" connectable="0" parent="WhPX4swOmzl25VGrsaIu-65">
          <mxGeometry x="0.2778" y="6" relative="1" as="geometry">
            <mxPoint x="-4" y="16" as="offset" />
          </mxGeometry>
        </mxCell>
        <mxCell id="WhPX4swOmzl25VGrsaIu-67" value="21" style="ellipse;whiteSpace=wrap;html=1;aspect=fixed;" vertex="1" parent="1">
          <mxGeometry x="1052.75" y="1672.75" width="56.5" height="56.5" as="geometry" />
        </mxCell>
        <mxCell id="WhPX4swOmzl25VGrsaIu-68" style="edgeStyle=orthogonalEdgeStyle;rounded=0;orthogonalLoop=1;jettySize=auto;html=1;" edge="1" parent="1" source="WhPX4swOmzl25VGrsaIu-70" target="WhPX4swOmzl25VGrsaIu-73">
          <mxGeometry relative="1" as="geometry">
            <Array as="points">
              <mxPoint x="1796" y="1650" />
            </Array>
          </mxGeometry>
        </mxCell>
        <mxCell id="WhPX4swOmzl25VGrsaIu-69" style="edgeStyle=orthogonalEdgeStyle;rounded=0;orthogonalLoop=1;jettySize=auto;html=1;entryX=0;entryY=0.5;entryDx=0;entryDy=0;" edge="1" parent="1" source="WhPX4swOmzl25VGrsaIu-70" target="WhPX4swOmzl25VGrsaIu-75">
          <mxGeometry relative="1" as="geometry">
            <Array as="points">
              <mxPoint x="2101" y="1570" />
              <mxPoint x="2101" y="1382" />
            </Array>
          </mxGeometry>
        </mxCell>
        <mxCell id="WhPX4swOmzl25VGrsaIu-70" value="" style="ellipse;whiteSpace=wrap;html=1;aspect=fixed;" vertex="1" parent="1">
          <mxGeometry x="1758" y="1552" width="56.5" height="56.5" as="geometry" />
        </mxCell>
        <mxCell id="WhPX4swOmzl25VGrsaIu-71" value="L" style="text;html=1;align=center;verticalAlign=middle;resizable=0;points=[];autosize=1;strokeColor=none;fillColor=none;" vertex="1" parent="1">
          <mxGeometry x="1149" y="1780" width="25" height="26" as="geometry" />
        </mxCell>
        <mxCell id="WhPX4swOmzl25VGrsaIu-72" style="edgeStyle=orthogonalEdgeStyle;rounded=0;orthogonalLoop=1;jettySize=auto;html=1;" edge="1" parent="1" source="WhPX4swOmzl25VGrsaIu-73" target="WhPX4swOmzl25VGrsaIu-75">
          <mxGeometry relative="1" as="geometry" />
        </mxCell>
        <mxCell id="WhPX4swOmzl25VGrsaIu-73" value="" style="ellipse;whiteSpace=wrap;html=1;aspect=fixed;" vertex="1" parent="1">
          <mxGeometry x="1909.25" y="1624" width="56.5" height="56.5" as="geometry" />
        </mxCell>
        <mxCell id="WhPX4swOmzl25VGrsaIu-74" value="L" style="text;html=1;align=center;verticalAlign=middle;resizable=0;points=[];autosize=1;strokeColor=none;fillColor=none;" vertex="1" parent="1">
          <mxGeometry x="1838" y="1624" width="25" height="26" as="geometry" />
        </mxCell>
        <mxCell id="WhPX4swOmzl25VGrsaIu-75" value="" style="ellipse;whiteSpace=wrap;html=1;aspect=fixed;" vertex="1" parent="1">
          <mxGeometry x="2084" y="1353.5" width="56.5" height="56.5" as="geometry" />
        </mxCell>
        <mxCell id="WhPX4swOmzl25VGrsaIu-76" value="u|U" style="text;html=1;align=center;verticalAlign=middle;resizable=0;points=[];autosize=1;strokeColor=none;fillColor=none;" vertex="1" parent="1">
          <mxGeometry x="1907" y="1627.5" width="36" height="26" as="geometry" />
        </mxCell>
        <mxCell id="WhPX4swOmzl25VGrsaIu-77" value="u|U" style="text;html=1;align=center;verticalAlign=middle;resizable=0;points=[];autosize=1;strokeColor=none;fillColor=none;" vertex="1" parent="1">
          <mxGeometry x="1857" y="1545" width="36" height="26" as="geometry" />
        </mxCell>
        <mxCell id="WhPX4swOmzl25VGrsaIu-78" style="edgeStyle=orthogonalEdgeStyle;rounded=0;orthogonalLoop=1;jettySize=auto;html=1;" edge="1" parent="1" source="WhPX4swOmzl25VGrsaIu-79" target="WhPX4swOmzl25VGrsaIu-75">
          <mxGeometry relative="1" as="geometry">
            <Array as="points">
              <mxPoint x="2105" y="1298" />
            </Array>
          </mxGeometry>
        </mxCell>
        <mxCell id="WhPX4swOmzl25VGrsaIu-79" value="" style="ellipse;whiteSpace=wrap;html=1;aspect=fixed;" vertex="1" parent="1">
          <mxGeometry x="1906.5" y="1267.28" width="62" height="62" as="geometry" />
        </mxCell>
        <mxCell id="WhPX4swOmzl25VGrsaIu-80" value="l" style="text;html=1;align=center;verticalAlign=middle;resizable=0;points=[];autosize=1;strokeColor=none;fillColor=none;" vertex="1" parent="1">
          <mxGeometry x="1572" y="1403.25" width="21" height="26" as="geometry" />
        </mxCell>
        <mxCell id="WhPX4swOmzl25VGrsaIu-81" value="l" style="text;html=1;align=center;verticalAlign=middle;resizable=0;points=[];autosize=1;strokeColor=none;fillColor=none;" vertex="1" parent="1">
          <mxGeometry x="1844" y="1273.81" width="21" height="26" as="geometry" />
        </mxCell>
        <mxCell id="WhPX4swOmzl25VGrsaIu-82" value="u|U" style="text;html=1;align=center;verticalAlign=middle;resizable=0;points=[];autosize=1;strokeColor=none;fillColor=none;" vertex="1" parent="1">
          <mxGeometry x="1909" y="1271.78" width="36" height="26" as="geometry" />
        </mxCell>
        <mxCell id="WhPX4swOmzl25VGrsaIu-83" value="u|U" style="text;html=1;align=center;verticalAlign=middle;resizable=0;points=[];autosize=1;strokeColor=none;fillColor=none;" vertex="1" parent="1">
          <mxGeometry x="1912" y="1340" width="36" height="26" as="geometry" />
        </mxCell>
        <mxCell id="WhPX4swOmzl25VGrsaIu-84" style="edgeStyle=orthogonalEdgeStyle;rounded=0;orthogonalLoop=1;jettySize=auto;html=1;" edge="1" parent="1" source="WhPX4swOmzl25VGrsaIu-85" target="WhPX4swOmzl25VGrsaIu-75">
          <mxGeometry relative="1" as="geometry">
            <Array as="points">
              <mxPoint x="2120" y="1055" />
            </Array>
          </mxGeometry>
        </mxCell>
        <mxCell id="WhPX4swOmzl25VGrsaIu-85" value="" style="ellipse;whiteSpace=wrap;html=1;aspect=fixed;" vertex="1" parent="1">
          <mxGeometry x="1912" y="1024" width="56.5" height="56.5" as="geometry" />
        </mxCell>
        <mxCell id="WhPX4swOmzl25VGrsaIu-86" style="edgeStyle=orthogonalEdgeStyle;rounded=0;orthogonalLoop=1;jettySize=auto;html=1;" edge="1" parent="1" source="WhPX4swOmzl25VGrsaIu-87" target="WhPX4swOmzl25VGrsaIu-75">
          <mxGeometry relative="1" as="geometry" />
        </mxCell>
        <mxCell id="WhPX4swOmzl25VGrsaIu-87" value="" style="ellipse;whiteSpace=wrap;html=1;aspect=fixed;" vertex="1" parent="1">
          <mxGeometry x="1908.5" y="1181.5" width="56.5" height="56.5" as="geometry" />
        </mxCell>
        <mxCell id="WhPX4swOmzl25VGrsaIu-88" value="L" style="text;html=1;align=center;verticalAlign=middle;resizable=0;points=[];autosize=1;strokeColor=none;fillColor=none;" vertex="1" parent="1">
          <mxGeometry x="1682" y="1026.5" width="25" height="26" as="geometry" />
        </mxCell>
        <mxCell id="WhPX4swOmzl25VGrsaIu-89" value="l" style="text;html=1;align=center;verticalAlign=middle;resizable=0;points=[];autosize=1;strokeColor=none;fillColor=none;" vertex="1" parent="1">
          <mxGeometry x="1885.5" y="1185" width="21" height="26" as="geometry" />
        </mxCell>
        <mxCell id="WhPX4swOmzl25VGrsaIu-90" value="l" style="text;html=1;align=center;verticalAlign=middle;resizable=0;points=[];autosize=1;strokeColor=none;fillColor=none;" vertex="1" parent="1">
          <mxGeometry x="2013" y="1185" width="21" height="26" as="geometry" />
        </mxCell>
        <mxCell id="WhPX4swOmzl25VGrsaIu-91" value="L" style="text;html=1;align=center;verticalAlign=middle;resizable=0;points=[];autosize=1;strokeColor=none;fillColor=none;" vertex="1" parent="1">
          <mxGeometry x="1682" y="1026.5" width="25" height="26" as="geometry" />
        </mxCell>
        <mxCell id="WhPX4swOmzl25VGrsaIu-92" value="L" style="text;html=1;align=center;verticalAlign=middle;resizable=0;points=[];autosize=1;strokeColor=none;fillColor=none;" vertex="1" parent="1">
          <mxGeometry x="2009" y="1030" width="25" height="26" as="geometry" />
        </mxCell>
        <mxCell id="WhPX4swOmzl25VGrsaIu-93" value="15" style="ellipse;whiteSpace=wrap;html=1;aspect=fixed;" vertex="1" parent="1">
          <mxGeometry x="1473.5" y="1185" width="49.5" height="49.5" as="geometry" />
        </mxCell>
        <mxCell id="WhPX4swOmzl25VGrsaIu-94" value="17" style="ellipse;whiteSpace=wrap;html=1;aspect=fixed;" vertex="1" parent="1">
          <mxGeometry x="1676.25" y="1273.53" width="49.5" height="49.5" as="geometry" />
        </mxCell>
        <mxCell id="WhPX4swOmzl25VGrsaIu-95" value="22" style="ellipse;whiteSpace=wrap;html=1;aspect=fixed;" vertex="1" parent="1">
          <mxGeometry x="1761.5" y="1555.5" width="49.5" height="49.5" as="geometry" />
        </mxCell>
        <mxCell id="WhPX4swOmzl25VGrsaIu-96" value="23" style="ellipse;whiteSpace=wrap;html=1;aspect=fixed;" vertex="1" parent="1">
          <mxGeometry x="1912.75" y="1627.5" width="49.5" height="49.5" as="geometry" />
        </mxCell>
        <mxCell id="WhPX4swOmzl25VGrsaIu-97" value="18" style="ellipse;whiteSpace=wrap;html=1;aspect=fixed;" vertex="1" parent="1">
          <mxGeometry x="1912.75" y="1273.81" width="49.5" height="49.5" as="geometry" />
        </mxCell>
        <mxCell id="WhPX4swOmzl25VGrsaIu-98" value="16" style="ellipse;whiteSpace=wrap;html=1;aspect=fixed;" vertex="1" parent="1">
          <mxGeometry x="1912" y="1185" width="49.5" height="49.5" as="geometry" />
        </mxCell>
        <mxCell id="WhPX4swOmzl25VGrsaIu-99" value="13" style="ellipse;whiteSpace=wrap;html=1;aspect=fixed;" vertex="1" parent="1">
          <mxGeometry x="1915.5" y="1027.5" width="49.5" height="49.5" as="geometry" />
        </mxCell>
        <mxCell id="WhPX4swOmzl25VGrsaIu-100" value="19" style="ellipse;whiteSpace=wrap;html=1;aspect=fixed;" vertex="1" parent="1">
          <mxGeometry x="2087.5" y="1357" width="49.5" height="49.5" as="geometry" />
        </mxCell>
        <mxCell id="WhPX4swOmzl25VGrsaIu-101" value="" style="curved=1;endArrow=classic;html=1;rounded=0;entryX=0;entryY=1;entryDx=0;entryDy=0;" edge="1" parent="1" source="WhPX4swOmzl25VGrsaIu-50" target="WhPX4swOmzl25VGrsaIu-50">
          <mxGeometry width="50" height="50" relative="1" as="geometry">
            <mxPoint x="1415" y="1178" as="sourcePoint" />
            <mxPoint x="1465" y="1128" as="targetPoint" />
            <Array as="points">
              <mxPoint x="1433" y="1160" />
              <mxPoint x="1423" y="1177" />
              <mxPoint x="1400" y="1181" />
              <mxPoint x="1388" y="1154" />
            </Array>
          </mxGeometry>
        </mxCell>
        <mxCell id="WhPX4swOmzl25VGrsaIu-102" value="0~f" style="edgeLabel;html=1;align=center;verticalAlign=middle;resizable=0;points=[];" vertex="1" connectable="0" parent="WhPX4swOmzl25VGrsaIu-101">
          <mxGeometry x="0.216" relative="1" as="geometry">
            <mxPoint x="-18" y="-2" as="offset" />
          </mxGeometry>
        </mxCell>
        <mxCell id="WhPX4swOmzl25VGrsaIu-103" style="edgeStyle=orthogonalEdgeStyle;rounded=0;orthogonalLoop=1;jettySize=auto;html=1;entryX=0.5;entryY=1;entryDx=0;entryDy=0;" edge="1" parent="1" source="WhPX4swOmzl25VGrsaIu-104" target="WhPX4swOmzl25VGrsaIu-110">
          <mxGeometry relative="1" as="geometry" />
        </mxCell>
        <mxCell id="WhPX4swOmzl25VGrsaIu-104" value="10" style="ellipse;whiteSpace=wrap;html=1;aspect=fixed;" vertex="1" parent="1">
          <mxGeometry x="1389" y="973.5" width="56.5" height="56.5" as="geometry" />
        </mxCell>
        <mxCell id="WhPX4swOmzl25VGrsaIu-105" value="p|P" style="text;html=1;align=center;verticalAlign=middle;resizable=0;points=[];autosize=1;strokeColor=none;fillColor=none;" vertex="1" parent="1">
          <mxGeometry x="1467" y="926" width="36" height="26" as="geometry" />
        </mxCell>
        <mxCell id="WhPX4swOmzl25VGrsaIu-106" style="edgeStyle=orthogonalEdgeStyle;rounded=0;orthogonalLoop=1;jettySize=auto;html=1;" edge="1" parent="1" source="WhPX4swOmzl25VGrsaIu-108" target="WhPX4swOmzl25VGrsaIu-118">
          <mxGeometry relative="1" as="geometry" />
        </mxCell>
        <mxCell id="WhPX4swOmzl25VGrsaIu-107" style="edgeStyle=orthogonalEdgeStyle;rounded=0;orthogonalLoop=1;jettySize=auto;html=1;" edge="1" parent="1" source="WhPX4swOmzl25VGrsaIu-108" target="WhPX4swOmzl25VGrsaIu-120">
          <mxGeometry relative="1" as="geometry">
            <Array as="points">
              <mxPoint x="1469" y="685" />
            </Array>
          </mxGeometry>
        </mxCell>
        <mxCell id="WhPX4swOmzl25VGrsaIu-108" value="5" style="ellipse;whiteSpace=wrap;html=1;aspect=fixed;" vertex="1" parent="1">
          <mxGeometry x="1441" y="700" width="56.5" height="56.5" as="geometry" />
        </mxCell>
        <mxCell id="WhPX4swOmzl25VGrsaIu-109" style="edgeStyle=orthogonalEdgeStyle;rounded=0;orthogonalLoop=1;jettySize=auto;html=1;entryX=0;entryY=0.5;entryDx=0;entryDy=0;" edge="1" parent="1" source="WhPX4swOmzl25VGrsaIu-110" target="WhPX4swOmzl25VGrsaIu-108">
          <mxGeometry relative="1" as="geometry" />
        </mxCell>
        <mxCell id="WhPX4swOmzl25VGrsaIu-110" value="" style="ellipse;whiteSpace=wrap;html=1;aspect=fixed;" vertex="1" parent="1">
          <mxGeometry x="1388" y="852" width="56.5" height="56.5" as="geometry" />
        </mxCell>
        <mxCell id="WhPX4swOmzl25VGrsaIu-111" style="edgeStyle=orthogonalEdgeStyle;rounded=0;orthogonalLoop=1;jettySize=auto;html=1;entryX=0;entryY=0.5;entryDx=0;entryDy=0;jumpStyle=arc;" edge="1" parent="1" source="WhPX4swOmzl25VGrsaIu-112" target="WhPX4swOmzl25VGrsaIu-126">
          <mxGeometry relative="1" as="geometry">
            <Array as="points" />
          </mxGeometry>
        </mxCell>
        <mxCell id="WhPX4swOmzl25VGrsaIu-112" value="8" style="ellipse;whiteSpace=wrap;html=1;aspect=fixed;" vertex="1" parent="1">
          <mxGeometry x="1391.5" y="855.5" width="49.5" height="49.5" as="geometry" />
        </mxCell>
        <mxCell id="WhPX4swOmzl25VGrsaIu-113" value="" style="curved=1;endArrow=classic;html=1;rounded=0;entryX=0.039;entryY=0.244;entryDx=0;entryDy=0;entryPerimeter=0;" edge="1" parent="1" source="WhPX4swOmzl25VGrsaIu-110" target="WhPX4swOmzl25VGrsaIu-110">
          <mxGeometry width="50" height="50" relative="1" as="geometry">
            <mxPoint x="1328" y="914" as="sourcePoint" />
            <mxPoint x="1378" y="864" as="targetPoint" />
            <Array as="points">
              <mxPoint x="1359" y="899" />
              <mxPoint x="1331" y="888" />
              <mxPoint x="1347" y="863" />
            </Array>
          </mxGeometry>
        </mxCell>
        <mxCell id="WhPX4swOmzl25VGrsaIu-114" value="0~f" style="text;html=1;align=center;verticalAlign=middle;resizable=0;points=[];autosize=1;strokeColor=none;fillColor=none;" vertex="1" parent="1">
          <mxGeometry x="1296" y="817.25" width="35" height="26" as="geometry" />
        </mxCell>
        <mxCell id="WhPX4swOmzl25VGrsaIu-115" value="0~f" style="text;html=1;align=center;verticalAlign=middle;resizable=0;points=[];autosize=1;strokeColor=none;fillColor=none;" vertex="1" parent="1">
          <mxGeometry x="1381" y="929" width="35" height="26" as="geometry" />
        </mxCell>
        <mxCell id="WhPX4swOmzl25VGrsaIu-116" value="p|P" style="text;html=1;align=center;verticalAlign=middle;resizable=0;points=[];autosize=1;strokeColor=none;fillColor=none;" vertex="1" parent="1">
          <mxGeometry x="1381" y="768" width="36" height="26" as="geometry" />
        </mxCell>
        <mxCell id="WhPX4swOmzl25VGrsaIu-117" style="edgeStyle=orthogonalEdgeStyle;rounded=0;orthogonalLoop=1;jettySize=auto;html=1;" edge="1" parent="1" source="WhPX4swOmzl25VGrsaIu-118" target="WhPX4swOmzl25VGrsaIu-126">
          <mxGeometry relative="1" as="geometry">
            <Array as="points">
              <mxPoint x="2091" y="728" />
            </Array>
          </mxGeometry>
        </mxCell>
        <mxCell id="WhPX4swOmzl25VGrsaIu-118" value="" style="ellipse;whiteSpace=wrap;html=1;aspect=fixed;" vertex="1" parent="1">
          <mxGeometry x="1884" y="700" width="56.5" height="56.5" as="geometry" />
        </mxCell>
        <mxCell id="WhPX4swOmzl25VGrsaIu-119" style="edgeStyle=orthogonalEdgeStyle;rounded=0;orthogonalLoop=1;jettySize=auto;html=1;entryX=0.5;entryY=0;entryDx=0;entryDy=0;" edge="1" parent="1" source="WhPX4swOmzl25VGrsaIu-120" target="WhPX4swOmzl25VGrsaIu-118">
          <mxGeometry relative="1" as="geometry">
            <Array as="points">
              <mxPoint x="1912" y="685" />
            </Array>
          </mxGeometry>
        </mxCell>
        <mxCell id="WhPX4swOmzl25VGrsaIu-120" value="6" style="ellipse;whiteSpace=wrap;html=1;aspect=fixed;" vertex="1" parent="1">
          <mxGeometry x="1656" y="657" width="56.5" height="56.5" as="geometry" />
        </mxCell>
        <mxCell id="WhPX4swOmzl25VGrsaIu-121" value="0~f" style="text;html=1;align=center;verticalAlign=middle;resizable=0;points=[];autosize=1;strokeColor=none;fillColor=none;" vertex="1" parent="1">
          <mxGeometry x="1666.75" y="730.5" width="35" height="26" as="geometry" />
        </mxCell>
        <mxCell id="WhPX4swOmzl25VGrsaIu-122" value="0~f" style="text;html=1;align=center;verticalAlign=middle;resizable=0;points=[];autosize=1;strokeColor=none;fillColor=none;" vertex="1" parent="1">
          <mxGeometry x="1781" y="663" width="35" height="26" as="geometry" />
        </mxCell>
        <mxCell id="WhPX4swOmzl25VGrsaIu-123" value="+|-" style="text;html=1;align=center;verticalAlign=middle;resizable=0;points=[];autosize=1;strokeColor=none;fillColor=none;" vertex="1" parent="1">
          <mxGeometry x="1576" y="658" width="32" height="26" as="geometry" />
        </mxCell>
        <mxCell id="WhPX4swOmzl25VGrsaIu-124" value="" style="curved=1;endArrow=classic;html=1;rounded=0;entryX=0.302;entryY=0.993;entryDx=0;entryDy=0;entryPerimeter=0;" edge="1" parent="1" target="WhPX4swOmzl25VGrsaIu-118">
          <mxGeometry width="50" height="50" relative="1" as="geometry">
            <mxPoint x="1927.75" y="754" as="sourcePoint" />
            <mxPoint x="1898.75" y="747" as="targetPoint" />
            <Array as="points">
              <mxPoint x="1934.75" y="773" />
              <mxPoint x="1924.75" y="790" />
              <mxPoint x="1901.75" y="794" />
              <mxPoint x="1889.75" y="767" />
            </Array>
          </mxGeometry>
        </mxCell>
        <mxCell id="WhPX4swOmzl25VGrsaIu-125" value="0~f" style="edgeLabel;html=1;align=center;verticalAlign=middle;resizable=0;points=[];" vertex="1" connectable="0" parent="WhPX4swOmzl25VGrsaIu-124">
          <mxGeometry x="0.216" relative="1" as="geometry">
            <mxPoint x="-18" y="-2" as="offset" />
          </mxGeometry>
        </mxCell>
        <mxCell id="WhPX4swOmzl25VGrsaIu-126" value="" style="ellipse;whiteSpace=wrap;html=1;aspect=fixed;" vertex="1" parent="1">
          <mxGeometry x="2080.5" y="852" width="56.5" height="56.5" as="geometry" />
        </mxCell>
        <mxCell id="WhPX4swOmzl25VGrsaIu-127" value="f|F|l|L" style="text;html=1;align=center;verticalAlign=middle;resizable=0;points=[];autosize=1;strokeColor=none;fillColor=none;" vertex="1" parent="1">
          <mxGeometry x="1980" y="694" width="47" height="26" as="geometry" />
        </mxCell>
        <mxCell id="WhPX4swOmzl25VGrsaIu-128" value="f|F|l|L" style="text;html=1;align=center;verticalAlign=middle;resizable=0;points=[];autosize=1;strokeColor=none;fillColor=none;" vertex="1" parent="1">
          <mxGeometry x="1743" y="858" width="47" height="26" as="geometry" />
        </mxCell>
        <mxCell id="WhPX4swOmzl25VGrsaIu-129" style="edgeStyle=orthogonalEdgeStyle;rounded=0;orthogonalLoop=1;jettySize=auto;html=1;" edge="1" parent="1" source="WhPX4swOmzl25VGrsaIu-130" target="WhPX4swOmzl25VGrsaIu-135">
          <mxGeometry relative="1" as="geometry">
            <Array as="points">
              <mxPoint x="1097" y="646" />
              <mxPoint x="1096" y="646" />
            </Array>
          </mxGeometry>
        </mxCell>
        <mxCell id="WhPX4swOmzl25VGrsaIu-130" value="4" style="ellipse;whiteSpace=wrap;html=1;aspect=fixed;" vertex="1" parent="1">
          <mxGeometry x="1068.5" y="795.5" width="56.5" height="56.5" as="geometry" />
        </mxCell>
        <mxCell id="WhPX4swOmzl25VGrsaIu-131" value="." style="text;html=1;align=center;verticalAlign=middle;resizable=0;points=[];autosize=1;strokeColor=none;fillColor=none;" vertex="1" parent="1">
          <mxGeometry x="1062" y="1049" width="21" height="26" as="geometry" />
        </mxCell>
        <mxCell id="WhPX4swOmzl25VGrsaIu-132" value="." style="edgeLabel;html=1;align=center;verticalAlign=middle;resizable=0;points=[];" vertex="1" connectable="0" parent="1">
          <mxGeometry x="1038" y="921.9986115626476" as="geometry">
            <mxPoint x="36" y="-6" as="offset" />
          </mxGeometry>
        </mxCell>
        <mxCell id="WhPX4swOmzl25VGrsaIu-133" style="edgeStyle=orthogonalEdgeStyle;rounded=0;orthogonalLoop=1;jettySize=auto;html=1;entryX=0.314;entryY=0.063;entryDx=0;entryDy=0;entryPerimeter=0;" edge="1" parent="1" source="WhPX4swOmzl25VGrsaIu-135" target="WhPX4swOmzl25VGrsaIu-126">
          <mxGeometry relative="1" as="geometry" />
        </mxCell>
        <mxCell id="WhPX4swOmzl25VGrsaIu-134" style="edgeStyle=orthogonalEdgeStyle;rounded=0;orthogonalLoop=1;jettySize=auto;html=1;entryX=1;entryY=0.5;entryDx=0;entryDy=0;" edge="1" parent="1" source="WhPX4swOmzl25VGrsaIu-135" target="WhPX4swOmzl25VGrsaIu-143">
          <mxGeometry relative="1" as="geometry" />
        </mxCell>
        <mxCell id="WhPX4swOmzl25VGrsaIu-135" value="" style="ellipse;whiteSpace=wrap;html=1;aspect=fixed;" vertex="1" parent="1">
          <mxGeometry x="1068" y="585" width="56.5" height="56.5" as="geometry" />
        </mxCell>
        <mxCell id="WhPX4swOmzl25VGrsaIu-136" value="0~9" style="text;html=1;align=center;verticalAlign=middle;resizable=0;points=[];autosize=1;strokeColor=none;fillColor=none;" vertex="1" parent="1">
          <mxGeometry x="1189" y="589.5" width="38" height="26" as="geometry" />
        </mxCell>
        <mxCell id="WhPX4swOmzl25VGrsaIu-137" value="f|F|l|L" style="text;html=1;align=center;verticalAlign=middle;resizable=0;points=[];autosize=1;strokeColor=none;fillColor=none;" vertex="1" parent="1">
          <mxGeometry x="1641" y="585" width="47" height="26" as="geometry" />
        </mxCell>
        <mxCell id="WhPX4swOmzl25VGrsaIu-138" value="" style="curved=1;endArrow=classic;html=1;rounded=0;exitX=1;exitY=0;exitDx=0;exitDy=0;entryX=0;entryY=0;entryDx=0;entryDy=0;" edge="1" parent="1">
          <mxGeometry width="50" height="50" relative="1" as="geometry">
            <mxPoint x="1117.25" y="594" as="sourcePoint" />
            <mxPoint x="1077.25" y="594" as="targetPoint" />
            <Array as="points">
              <mxPoint x="1119.25" y="564" />
              <mxPoint x="1099.25" y="552" />
              <mxPoint x="1081.25" y="565" />
            </Array>
          </mxGeometry>
        </mxCell>
        <mxCell id="WhPX4swOmzl25VGrsaIu-139" value="0~9" style="text;html=1;align=center;verticalAlign=middle;resizable=0;points=[];autosize=1;strokeColor=none;fillColor=none;" vertex="1" parent="1">
          <mxGeometry x="1077.25" y="533" width="38" height="26" as="geometry" />
        </mxCell>
        <mxCell id="WhPX4swOmzl25VGrsaIu-140" style="edgeStyle=orthogonalEdgeStyle;rounded=0;orthogonalLoop=1;jettySize=auto;html=1;" edge="1" parent="1" source="WhPX4swOmzl25VGrsaIu-143" target="WhPX4swOmzl25VGrsaIu-148">
          <mxGeometry relative="1" as="geometry">
            <Array as="points">
              <mxPoint x="897" y="367" />
            </Array>
          </mxGeometry>
        </mxCell>
        <mxCell id="WhPX4swOmzl25VGrsaIu-141" style="edgeStyle=orthogonalEdgeStyle;rounded=0;orthogonalLoop=1;jettySize=auto;html=1;" edge="1" parent="1" source="WhPX4swOmzl25VGrsaIu-143" target="WhPX4swOmzl25VGrsaIu-150">
          <mxGeometry relative="1" as="geometry">
            <Array as="points">
              <mxPoint x="911" y="447" />
            </Array>
          </mxGeometry>
        </mxCell>
        <mxCell id="WhPX4swOmzl25VGrsaIu-142" value="+|-" style="edgeLabel;html=1;align=center;verticalAlign=middle;resizable=0;points=[];" vertex="1" connectable="0" parent="WhPX4swOmzl25VGrsaIu-141">
          <mxGeometry x="0.616" y="2" relative="1" as="geometry">
            <mxPoint x="-39" y="16" as="offset" />
          </mxGeometry>
        </mxCell>
        <mxCell id="WhPX4swOmzl25VGrsaIu-143" value="2" style="ellipse;whiteSpace=wrap;html=1;aspect=fixed;" vertex="1" parent="1">
          <mxGeometry x="866" y="582.25" width="62" height="62" as="geometry" />
        </mxCell>
        <mxCell id="WhPX4swOmzl25VGrsaIu-144" value="e|E" style="text;html=1;align=center;verticalAlign=middle;resizable=0;points=[];autosize=1;strokeColor=none;fillColor=none;" vertex="1" parent="1">
          <mxGeometry x="993" y="585" width="36" height="26" as="geometry" />
        </mxCell>
        <mxCell id="WhPX4swOmzl25VGrsaIu-145" value="e|E" style="text;html=1;align=center;verticalAlign=middle;resizable=0;points=[];autosize=1;strokeColor=none;fillColor=none;" vertex="1" parent="1">
          <mxGeometry x="920" y="695.75" width="36" height="26" as="geometry" />
        </mxCell>
        <mxCell id="WhPX4swOmzl25VGrsaIu-146" value="e|E" style="text;html=1;align=center;verticalAlign=middle;resizable=0;points=[];autosize=1;strokeColor=none;fillColor=none;" vertex="1" parent="1">
          <mxGeometry x="850" y="695.75" width="36" height="26" as="geometry" />
        </mxCell>
        <mxCell id="WhPX4swOmzl25VGrsaIu-147" style="edgeStyle=orthogonalEdgeStyle;rounded=0;orthogonalLoop=1;jettySize=auto;html=1;entryX=0.5;entryY=0;entryDx=0;entryDy=0;" edge="1" parent="1" source="WhPX4swOmzl25VGrsaIu-148" target="WhPX4swOmzl25VGrsaIu-126">
          <mxGeometry relative="1" as="geometry" />
        </mxCell>
        <mxCell id="WhPX4swOmzl25VGrsaIu-148" value="" style="ellipse;whiteSpace=wrap;html=1;aspect=fixed;" vertex="1" parent="1">
          <mxGeometry x="1408" y="416" width="62" height="62" as="geometry" />
        </mxCell>
        <mxCell id="WhPX4swOmzl25VGrsaIu-149" style="edgeStyle=orthogonalEdgeStyle;rounded=0;orthogonalLoop=1;jettySize=auto;html=1;" edge="1" parent="1" source="WhPX4swOmzl25VGrsaIu-150" target="WhPX4swOmzl25VGrsaIu-148">
          <mxGeometry relative="1" as="geometry">
            <mxPoint x="1439" y="478" as="targetPoint" />
            <Array as="points">
              <mxPoint x="1352" y="447" />
              <mxPoint x="1352" y="447" />
            </Array>
          </mxGeometry>
        </mxCell>
        <mxCell id="WhPX4swOmzl25VGrsaIu-150" value="0" style="ellipse;whiteSpace=wrap;html=1;aspect=fixed;" vertex="1" parent="1">
          <mxGeometry x="1124.5" y="416" width="62" height="62" as="geometry" />
        </mxCell>
        <mxCell id="WhPX4swOmzl25VGrsaIu-151" value="f|F|l|L" style="text;html=1;align=center;verticalAlign=middle;resizable=0;points=[];autosize=1;strokeColor=none;fillColor=none;" vertex="1" parent="1">
          <mxGeometry x="1714" y="421" width="47" height="26" as="geometry" />
        </mxCell>
        <mxCell id="WhPX4swOmzl25VGrsaIu-152" value="" style="curved=1;endArrow=classic;html=1;rounded=0;entryX=0.302;entryY=0.993;entryDx=0;entryDy=0;entryPerimeter=0;" edge="1" parent="1">
          <mxGeometry width="50" height="50" relative="1" as="geometry">
            <mxPoint x="1452" y="474" as="sourcePoint" />
            <mxPoint x="1425.25" y="476" as="targetPoint" />
            <Array as="points">
              <mxPoint x="1459" y="493" />
              <mxPoint x="1449" y="510" />
              <mxPoint x="1426" y="514" />
              <mxPoint x="1414" y="487" />
            </Array>
          </mxGeometry>
        </mxCell>
        <mxCell id="WhPX4swOmzl25VGrsaIu-153" value="0~9" style="edgeLabel;html=1;align=center;verticalAlign=middle;resizable=0;points=[];" vertex="1" connectable="0" parent="WhPX4swOmzl25VGrsaIu-152">
          <mxGeometry x="0.216" relative="1" as="geometry">
            <mxPoint x="-18" y="-2" as="offset" />
          </mxGeometry>
        </mxCell>
        <mxCell id="WhPX4swOmzl25VGrsaIu-154" value="0~9" style="edgeLabel;html=1;align=center;verticalAlign=middle;resizable=0;points=[];" vertex="1" connectable="0" parent="1">
          <mxGeometry x="1416.8262103503184" y="519.3589732882159" as="geometry">
            <mxPoint x="-138" y="-61" as="offset" />
          </mxGeometry>
        </mxCell>
        <mxCell id="WhPX4swOmzl25VGrsaIu-155" value="0~9" style="edgeLabel;html=1;align=center;verticalAlign=middle;resizable=0;points=[];" vertex="1" connectable="0" parent="1">
          <mxGeometry x="1426.8262103503184" y="529.3589732882159" as="geometry">
            <mxPoint x="-268" y="-177" as="offset" />
          </mxGeometry>
        </mxCell>
        <mxCell id="WhPX4swOmzl25VGrsaIu-156" value="1" style="ellipse;whiteSpace=wrap;html=1;aspect=fixed;" vertex="1" parent="1">
          <mxGeometry x="1414.25" y="422.25" width="49.5" height="49.5" as="geometry" />
        </mxCell>
        <mxCell id="WhPX4swOmzl25VGrsaIu-157" value="9" style="ellipse;whiteSpace=wrap;html=1;aspect=fixed;" vertex="1" parent="1">
          <mxGeometry x="2084" y="855.5" width="49.5" height="49.5" as="geometry" />
        </mxCell>
        <mxCell id="WhPX4swOmzl25VGrsaIu-158" value="7" style="ellipse;whiteSpace=wrap;html=1;aspect=fixed;" vertex="1" parent="1">
          <mxGeometry x="1887.5" y="703.5" width="49.5" height="49.5" as="geometry" />
        </mxCell>
        <mxCell id="WhPX4swOmzl25VGrsaIu-159" value="3" style="ellipse;whiteSpace=wrap;html=1;aspect=fixed;" vertex="1" parent="1">
          <mxGeometry x="1071.5" y="588.5" width="49.5" height="49.5" as="geometry" />
        </mxCell>
        <mxCell id="WhPX4swOmzl25VGrsaIu-160" value="u|U" style="text;html=1;align=center;verticalAlign=middle;resizable=0;points=[];autosize=1;strokeColor=none;fillColor=none;" vertex="1" parent="1">
          <mxGeometry x="2016" y="1273.53" width="36" height="26" as="geometry" />
        </mxCell>
        <mxCell id="WhPX4swOmzl25VGrsaIu-161" value="u|U" style="text;html=1;align=center;verticalAlign=middle;resizable=0;points=[];autosize=1;strokeColor=none;fillColor=none;" vertex="1" parent="1">
          <mxGeometry x="2027" y="1627.5" width="36" height="26" as="geometry" />
        </mxCell>
        <mxCell id="WhPX4swOmzl25VGrsaIu-165" value="0" style="ellipse;whiteSpace=wrap;html=1;aspect=fixed;" vertex="1" parent="1">
          <mxGeometry x="546" y="803" width="62" height="62" as="geometry" />
        </mxCell>
        <mxCell id="WhPX4swOmzl25VGrsaIu-168" value="&#39;" style="text;html=1;align=center;verticalAlign=middle;resizable=0;points=[];autosize=1;strokeColor=none;fillColor=none;" vertex="1" parent="1">
          <mxGeometry x="508" y="811" width="20" height="26" as="geometry" />
        </mxCell>
        <mxCell id="WhPX4swOmzl25VGrsaIu-169" value="" style="curved=1;endArrow=classic;html=1;rounded=0;entryX=0.446;entryY=0.022;entryDx=0;entryDy=0;entryPerimeter=0;" edge="1" parent="1" target="WhPX4swOmzl25VGrsaIu-165">
          <mxGeometry width="50" height="50" relative="1" as="geometry">
            <mxPoint x="608" y="835" as="sourcePoint" />
            <mxPoint x="658" y="785" as="targetPoint" />
            <Array as="points">
              <mxPoint x="634" y="822" />
              <mxPoint x="634" y="794" />
              <mxPoint x="613" y="775" />
              <mxPoint x="580" y="777" />
            </Array>
          </mxGeometry>
        </mxCell>
        <mxCell id="WhPX4swOmzl25VGrsaIu-170" value="!(&#39;|\)" style="edgeLabel;html=1;align=center;verticalAlign=middle;resizable=0;points=[];" vertex="1" connectable="0" parent="WhPX4swOmzl25VGrsaIu-169">
          <mxGeometry x="0.3226" y="-2" relative="1" as="geometry">
            <mxPoint x="7" y="-9" as="offset" />
          </mxGeometry>
        </mxCell>
        <mxCell id="WhPX4swOmzl25VGrsaIu-171" value="1" style="ellipse;whiteSpace=wrap;html=1;aspect=fixed;" vertex="1" parent="1">
          <mxGeometry x="546" y="916" width="62" height="62" as="geometry" />
        </mxCell>
        <mxCell id="WhPX4swOmzl25VGrsaIu-172" value="" style="endArrow=classic;html=1;rounded=0;exitX=0.6;exitY=1.031;exitDx=0;exitDy=0;exitPerimeter=0;entryX=0.607;entryY=0.038;entryDx=0;entryDy=0;entryPerimeter=0;" edge="1" parent="1" source="WhPX4swOmzl25VGrsaIu-165" target="WhPX4swOmzl25VGrsaIu-171">
          <mxGeometry width="50" height="50" relative="1" as="geometry">
            <mxPoint x="493" y="946.76" as="sourcePoint" />
            <mxPoint x="561" y="946.76" as="targetPoint" />
          </mxGeometry>
        </mxCell>
        <mxCell id="WhPX4swOmzl25VGrsaIu-173" value="\" style="edgeLabel;html=1;align=center;verticalAlign=middle;resizable=0;points=[];" vertex="1" connectable="0" parent="WhPX4swOmzl25VGrsaIu-172">
          <mxGeometry x="-0.4192" relative="1" as="geometry">
            <mxPoint x="4" y="6" as="offset" />
          </mxGeometry>
        </mxCell>
        <mxCell id="WhPX4swOmzl25VGrsaIu-174" value="2" style="ellipse;whiteSpace=wrap;html=1;aspect=fixed;" vertex="1" parent="1">
          <mxGeometry x="661" y="916" width="62" height="62" as="geometry" />
        </mxCell>
        <mxCell id="WhPX4swOmzl25VGrsaIu-175" value="" style="endArrow=classic;html=1;rounded=0;entryX=0;entryY=0.5;entryDx=0;entryDy=0;" edge="1" parent="1" target="WhPX4swOmzl25VGrsaIu-174">
          <mxGeometry width="50" height="50" relative="1" as="geometry">
            <mxPoint x="608" y="946.76" as="sourcePoint" />
            <mxPoint x="676" y="946.76" as="targetPoint" />
          </mxGeometry>
        </mxCell>
        <mxCell id="WhPX4swOmzl25VGrsaIu-176" value="x" style="text;html=1;align=center;verticalAlign=middle;resizable=0;points=[];autosize=1;strokeColor=none;fillColor=none;" vertex="1" parent="1">
          <mxGeometry x="621" y="924" width="24" height="26" as="geometry" />
        </mxCell>
        <mxCell id="WhPX4swOmzl25VGrsaIu-177" value="" style="endArrow=classic;html=1;rounded=0;exitX=0.378;exitY=0.028;exitDx=0;exitDy=0;exitPerimeter=0;entryX=0.374;entryY=0.994;entryDx=0;entryDy=0;entryPerimeter=0;" edge="1" parent="1" source="WhPX4swOmzl25VGrsaIu-171" target="WhPX4swOmzl25VGrsaIu-165">
          <mxGeometry width="50" height="50" relative="1" as="geometry">
            <mxPoint x="614" y="870" as="sourcePoint" />
            <mxPoint x="614" y="924" as="targetPoint" />
          </mxGeometry>
        </mxCell>
        <mxCell id="WhPX4swOmzl25VGrsaIu-178" value="0~8|a|b|f|n|r|t|v|\|&#39;|&quot;|?" style="edgeLabel;html=1;align=center;verticalAlign=middle;resizable=0;points=[];" vertex="1" connectable="0" parent="WhPX4swOmzl25VGrsaIu-177">
          <mxGeometry x="-0.4192" relative="1" as="geometry">
            <mxPoint x="-61" y="-12" as="offset" />
          </mxGeometry>
        </mxCell>
        <mxCell id="WhPX4swOmzl25VGrsaIu-179" value="" style="endArrow=classic;html=1;rounded=0;exitX=0;exitY=0;exitDx=0;exitDy=0;" edge="1" parent="1" source="WhPX4swOmzl25VGrsaIu-174" target="WhPX4swOmzl25VGrsaIu-165">
          <mxGeometry width="50" height="50" relative="1" as="geometry">
            <mxPoint x="679" y="887" as="sourcePoint" />
            <mxPoint x="732" y="887.24" as="targetPoint" />
          </mxGeometry>
        </mxCell>
        <mxCell id="WhPX4swOmzl25VGrsaIu-180" value="0~f" style="edgeLabel;html=1;align=center;verticalAlign=middle;resizable=0;points=[];" vertex="1" connectable="0" parent="WhPX4swOmzl25VGrsaIu-179">
          <mxGeometry x="-0.0789" y="-1" relative="1" as="geometry">
            <mxPoint x="16" y="-7" as="offset" />
          </mxGeometry>
        </mxCell>
        <mxCell id="WhPX4swOmzl25VGrsaIu-181" value="" style="endArrow=classic;html=1;rounded=0;entryX=0;entryY=0.5;entryDx=0;entryDy=0;" edge="1" parent="1">
          <mxGeometry width="50" height="50" relative="1" as="geometry">
            <mxPoint x="608" y="836.72" as="sourcePoint" />
            <mxPoint x="661" y="836.96" as="targetPoint" />
          </mxGeometry>
        </mxCell>
        <mxCell id="WhPX4swOmzl25VGrsaIu-182" value="&#39;" style="text;html=1;align=center;verticalAlign=middle;resizable=0;points=[];autosize=1;strokeColor=none;fillColor=none;" vertex="1" parent="1">
          <mxGeometry x="625" y="821" width="20" height="26" as="geometry" />
        </mxCell>
        <mxCell id="WhPX4swOmzl25VGrsaIu-183" value="2" style="ellipse;whiteSpace=wrap;html=1;aspect=fixed;" vertex="1" parent="1">
          <mxGeometry x="661" y="807" width="62" height="62" as="geometry" />
        </mxCell>
        <mxCell id="WhPX4swOmzl25VGrsaIu-184" value="END" style="ellipse;whiteSpace=wrap;html=1;aspect=fixed;" vertex="1" parent="1">
          <mxGeometry x="665.5" y="811.5" width="53" height="53" as="geometry" />
        </mxCell>
        <mxCell id="WhPX4swOmzl25VGrsaIu-185" value="ERROR" style="ellipse;whiteSpace=wrap;html=1;aspect=fixed;" vertex="1" parent="1">
          <mxGeometry x="546" y="1031" width="62" height="62" as="geometry" />
        </mxCell>
        <mxCell id="WhPX4swOmzl25VGrsaIu-186" value="" style="endArrow=classic;html=1;rounded=0;exitX=0.5;exitY=1;exitDx=0;exitDy=0;" edge="1" parent="1" source="WhPX4swOmzl25VGrsaIu-171" target="WhPX4swOmzl25VGrsaIu-185">
          <mxGeometry width="50" height="50" relative="1" as="geometry">
            <mxPoint x="618" y="956.76" as="sourcePoint" />
            <mxPoint x="671" y="957" as="targetPoint" />
          </mxGeometry>
        </mxCell>
        <mxCell id="WhPX4swOmzl25VGrsaIu-187" value="" style="endArrow=classic;html=1;rounded=0;exitX=0;exitY=1;exitDx=0;exitDy=0;entryX=0.94;entryY=0.212;entryDx=0;entryDy=0;entryPerimeter=0;" edge="1" parent="1" source="WhPX4swOmzl25VGrsaIu-174" target="WhPX4swOmzl25VGrsaIu-185">
          <mxGeometry width="50" height="50" relative="1" as="geometry">
            <mxPoint x="587" y="988" as="sourcePoint" />
            <mxPoint x="587" y="1041" as="targetPoint" />
          </mxGeometry>
        </mxCell>
        <mxCell id="WhPX4swOmzl25VGrsaIu-188" value="!(0~8|a|b|f|n|r|t|v|\|&#39;|&quot;|?|x)" style="text;html=1;align=center;verticalAlign=middle;resizable=0;points=[];autosize=1;strokeColor=none;fillColor=none;" vertex="1" parent="1">
          <mxGeometry x="428" y="987" width="146" height="26" as="geometry" />
        </mxCell>
        <mxCell id="WhPX4swOmzl25VGrsaIu-189" value="&lt;span style=&quot;color: rgb(0, 0, 0); font-family: Helvetica; font-size: 11px; font-style: normal; font-variant-ligatures: normal; font-variant-caps: normal; font-weight: 400; letter-spacing: normal; orphans: 2; text-align: center; text-indent: 0px; text-transform: none; widows: 2; word-spacing: 0px; -webkit-text-stroke-width: 0px; background-color: rgb(255, 255, 255); text-decoration-thickness: initial; text-decoration-style: initial; text-decoration-color: initial; float: none; display: inline !important;&quot;&gt;!(0~f)&lt;/span&gt;" style="text;whiteSpace=wrap;html=1;" vertex="1" parent="1">
          <mxGeometry x="643.0012757610452" y="997.9994331728179" width="45" height="36" as="geometry" />
        </mxCell>
        <mxCell id="WhPX4swOmzl25VGrsaIu-191" value="0" style="ellipse;whiteSpace=wrap;html=1;aspect=fixed;" vertex="1" parent="1">
          <mxGeometry x="571" y="1202" width="62" height="62" as="geometry" />
        </mxCell>
        <mxCell id="WhPX4swOmzl25VGrsaIu-194" value="&quot;" style="text;html=1;align=center;verticalAlign=middle;resizable=0;points=[];autosize=1;strokeColor=none;fillColor=none;" vertex="1" parent="1">
          <mxGeometry x="532" y="1210" width="22" height="26" as="geometry" />
        </mxCell>
        <mxCell id="WhPX4swOmzl25VGrsaIu-195" value="" style="curved=1;endArrow=classic;html=1;rounded=0;entryX=0.446;entryY=0.022;entryDx=0;entryDy=0;entryPerimeter=0;" edge="1" parent="1" target="WhPX4swOmzl25VGrsaIu-191">
          <mxGeometry width="50" height="50" relative="1" as="geometry">
            <mxPoint x="633" y="1234" as="sourcePoint" />
            <mxPoint x="683" y="1184" as="targetPoint" />
            <Array as="points">
              <mxPoint x="659" y="1221" />
              <mxPoint x="659" y="1193" />
              <mxPoint x="638" y="1174" />
              <mxPoint x="605" y="1176" />
            </Array>
          </mxGeometry>
        </mxCell>
        <mxCell id="WhPX4swOmzl25VGrsaIu-196" value="!(&quot;|\)" style="edgeLabel;html=1;align=center;verticalAlign=middle;resizable=0;points=[];" vertex="1" connectable="0" parent="WhPX4swOmzl25VGrsaIu-195">
          <mxGeometry x="0.3226" y="-2" relative="1" as="geometry">
            <mxPoint x="7" y="-9" as="offset" />
          </mxGeometry>
        </mxCell>
        <mxCell id="WhPX4swOmzl25VGrsaIu-197" value="1" style="ellipse;whiteSpace=wrap;html=1;aspect=fixed;" vertex="1" parent="1">
          <mxGeometry x="571" y="1315" width="62" height="62" as="geometry" />
        </mxCell>
        <mxCell id="WhPX4swOmzl25VGrsaIu-198" value="" style="endArrow=classic;html=1;rounded=0;exitX=0.6;exitY=1.031;exitDx=0;exitDy=0;exitPerimeter=0;entryX=0.607;entryY=0.038;entryDx=0;entryDy=0;entryPerimeter=0;" edge="1" parent="1" source="WhPX4swOmzl25VGrsaIu-191" target="WhPX4swOmzl25VGrsaIu-197">
          <mxGeometry width="50" height="50" relative="1" as="geometry">
            <mxPoint x="518" y="1345.76" as="sourcePoint" />
            <mxPoint x="586" y="1345.76" as="targetPoint" />
          </mxGeometry>
        </mxCell>
        <mxCell id="WhPX4swOmzl25VGrsaIu-199" value="\" style="edgeLabel;html=1;align=center;verticalAlign=middle;resizable=0;points=[];" vertex="1" connectable="0" parent="WhPX4swOmzl25VGrsaIu-198">
          <mxGeometry x="-0.4192" relative="1" as="geometry">
            <mxPoint x="4" y="6" as="offset" />
          </mxGeometry>
        </mxCell>
        <mxCell id="WhPX4swOmzl25VGrsaIu-200" value="2" style="ellipse;whiteSpace=wrap;html=1;aspect=fixed;" vertex="1" parent="1">
          <mxGeometry x="686" y="1315" width="62" height="62" as="geometry" />
        </mxCell>
        <mxCell id="WhPX4swOmzl25VGrsaIu-201" value="" style="endArrow=classic;html=1;rounded=0;entryX=0;entryY=0.5;entryDx=0;entryDy=0;" edge="1" parent="1" target="WhPX4swOmzl25VGrsaIu-200">
          <mxGeometry width="50" height="50" relative="1" as="geometry">
            <mxPoint x="633" y="1345.76" as="sourcePoint" />
            <mxPoint x="701" y="1345.76" as="targetPoint" />
          </mxGeometry>
        </mxCell>
        <mxCell id="WhPX4swOmzl25VGrsaIu-202" value="x" style="text;html=1;align=center;verticalAlign=middle;resizable=0;points=[];autosize=1;strokeColor=none;fillColor=none;" vertex="1" parent="1">
          <mxGeometry x="646" y="1323" width="24" height="26" as="geometry" />
        </mxCell>
        <mxCell id="WhPX4swOmzl25VGrsaIu-203" value="" style="endArrow=classic;html=1;rounded=0;exitX=0.378;exitY=0.028;exitDx=0;exitDy=0;exitPerimeter=0;entryX=0.374;entryY=0.994;entryDx=0;entryDy=0;entryPerimeter=0;" edge="1" parent="1" source="WhPX4swOmzl25VGrsaIu-197" target="WhPX4swOmzl25VGrsaIu-191">
          <mxGeometry width="50" height="50" relative="1" as="geometry">
            <mxPoint x="639" y="1269" as="sourcePoint" />
            <mxPoint x="639" y="1323" as="targetPoint" />
          </mxGeometry>
        </mxCell>
        <mxCell id="WhPX4swOmzl25VGrsaIu-204" value="0~8|a|b|f|n|r|t|v|\|&#39;|&quot;|?" style="edgeLabel;html=1;align=center;verticalAlign=middle;resizable=0;points=[];" vertex="1" connectable="0" parent="WhPX4swOmzl25VGrsaIu-203">
          <mxGeometry x="-0.4192" relative="1" as="geometry">
            <mxPoint x="-61" y="-12" as="offset" />
          </mxGeometry>
        </mxCell>
        <mxCell id="WhPX4swOmzl25VGrsaIu-205" value="" style="endArrow=classic;html=1;rounded=0;exitX=0;exitY=0;exitDx=0;exitDy=0;" edge="1" parent="1" source="WhPX4swOmzl25VGrsaIu-200" target="WhPX4swOmzl25VGrsaIu-191">
          <mxGeometry width="50" height="50" relative="1" as="geometry">
            <mxPoint x="704" y="1286" as="sourcePoint" />
            <mxPoint x="757" y="1286.24" as="targetPoint" />
          </mxGeometry>
        </mxCell>
        <mxCell id="WhPX4swOmzl25VGrsaIu-206" value="0~f" style="edgeLabel;html=1;align=center;verticalAlign=middle;resizable=0;points=[];" vertex="1" connectable="0" parent="WhPX4swOmzl25VGrsaIu-205">
          <mxGeometry x="-0.0789" y="-1" relative="1" as="geometry">
            <mxPoint x="16" y="-7" as="offset" />
          </mxGeometry>
        </mxCell>
        <mxCell id="WhPX4swOmzl25VGrsaIu-207" value="" style="endArrow=classic;html=1;rounded=0;entryX=0;entryY=0.5;entryDx=0;entryDy=0;" edge="1" parent="1">
          <mxGeometry width="50" height="50" relative="1" as="geometry">
            <mxPoint x="633" y="1235.72" as="sourcePoint" />
            <mxPoint x="686" y="1235.96" as="targetPoint" />
          </mxGeometry>
        </mxCell>
        <mxCell id="WhPX4swOmzl25VGrsaIu-208" value="&quot;" style="text;html=1;align=center;verticalAlign=middle;resizable=0;points=[];autosize=1;strokeColor=none;fillColor=none;" vertex="1" parent="1">
          <mxGeometry x="655" y="1210.5" width="22" height="26" as="geometry" />
        </mxCell>
        <mxCell id="WhPX4swOmzl25VGrsaIu-209" value="2" style="ellipse;whiteSpace=wrap;html=1;aspect=fixed;" vertex="1" parent="1">
          <mxGeometry x="686" y="1206" width="62" height="62" as="geometry" />
        </mxCell>
        <mxCell id="WhPX4swOmzl25VGrsaIu-210" value="END" style="ellipse;whiteSpace=wrap;html=1;aspect=fixed;" vertex="1" parent="1">
          <mxGeometry x="690.5" y="1210.5" width="53" height="53" as="geometry" />
        </mxCell>
        <mxCell id="WhPX4swOmzl25VGrsaIu-211" value="ERROR" style="ellipse;whiteSpace=wrap;html=1;aspect=fixed;" vertex="1" parent="1">
          <mxGeometry x="571" y="1430" width="62" height="62" as="geometry" />
        </mxCell>
        <mxCell id="WhPX4swOmzl25VGrsaIu-212" value="" style="endArrow=classic;html=1;rounded=0;exitX=0.5;exitY=1;exitDx=0;exitDy=0;" edge="1" parent="1" source="WhPX4swOmzl25VGrsaIu-197" target="WhPX4swOmzl25VGrsaIu-211">
          <mxGeometry width="50" height="50" relative="1" as="geometry">
            <mxPoint x="643" y="1355.76" as="sourcePoint" />
            <mxPoint x="696" y="1356" as="targetPoint" />
          </mxGeometry>
        </mxCell>
        <mxCell id="WhPX4swOmzl25VGrsaIu-213" value="" style="endArrow=classic;html=1;rounded=0;exitX=0;exitY=1;exitDx=0;exitDy=0;entryX=0.94;entryY=0.212;entryDx=0;entryDy=0;entryPerimeter=0;" edge="1" parent="1" source="WhPX4swOmzl25VGrsaIu-200" target="WhPX4swOmzl25VGrsaIu-211">
          <mxGeometry width="50" height="50" relative="1" as="geometry">
            <mxPoint x="612" y="1387" as="sourcePoint" />
            <mxPoint x="612" y="1440" as="targetPoint" />
          </mxGeometry>
        </mxCell>
        <mxCell id="WhPX4swOmzl25VGrsaIu-214" value="!(0~8|a|b|f|n|r|t|v|\|&#39;|&quot;|?|x)" style="text;html=1;align=center;verticalAlign=middle;resizable=0;points=[];autosize=1;strokeColor=none;fillColor=none;" vertex="1" parent="1">
          <mxGeometry x="453" y="1386" width="146" height="26" as="geometry" />
        </mxCell>
        <mxCell id="WhPX4swOmzl25VGrsaIu-215" value="&lt;span style=&quot;color: rgb(0, 0, 0); font-family: Helvetica; font-size: 11px; font-style: normal; font-variant-ligatures: normal; font-variant-caps: normal; font-weight: 400; letter-spacing: normal; orphans: 2; text-align: center; text-indent: 0px; text-transform: none; widows: 2; word-spacing: 0px; -webkit-text-stroke-width: 0px; background-color: rgb(255, 255, 255); text-decoration-thickness: initial; text-decoration-style: initial; text-decoration-color: initial; float: none; display: inline !important;&quot;&gt;!(0~f)&lt;/span&gt;" style="text;whiteSpace=wrap;html=1;" vertex="1" parent="1">
          <mxGeometry x="668.0012757610452" y="1396.999433172818" width="45" height="36" as="geometry" />
        </mxCell>
        <mxCell id="WhPX4swOmzl25VGrsaIu-218" style="edgeStyle=orthogonalEdgeStyle;rounded=0;orthogonalLoop=1;jettySize=auto;html=1;" edge="1" parent="1" target="WhPX4swOmzl25VGrsaIu-228">
          <mxGeometry relative="1" as="geometry">
            <Array as="points">
              <mxPoint x="324" y="1661" />
              <mxPoint x="324" y="1600" />
            </Array>
            <mxPoint x="295.1993377410831" y="1661" as="sourcePoint" />
          </mxGeometry>
        </mxCell>
        <mxCell id="WhPX4swOmzl25VGrsaIu-219" style="edgeStyle=orthogonalEdgeStyle;rounded=0;orthogonalLoop=1;jettySize=auto;html=1;entryX=0;entryY=0.5;entryDx=0;entryDy=0;" edge="1" parent="1" target="WhPX4swOmzl25VGrsaIu-246">
          <mxGeometry relative="1" as="geometry">
            <mxPoint x="296" y="1668" as="sourcePoint" />
          </mxGeometry>
        </mxCell>
        <mxCell id="WhPX4swOmzl25VGrsaIu-220" style="edgeStyle=orthogonalEdgeStyle;rounded=0;orthogonalLoop=1;jettySize=auto;html=1;" edge="1" parent="1" target="WhPX4swOmzl25VGrsaIu-257">
          <mxGeometry relative="1" as="geometry">
            <Array as="points">
              <mxPoint x="324" y="1675" />
              <mxPoint x="324" y="1741" />
            </Array>
            <mxPoint x="295.1993377410831" y="1675" as="sourcePoint" />
          </mxGeometry>
        </mxCell>
        <mxCell id="WhPX4swOmzl25VGrsaIu-221" style="edgeStyle=orthogonalEdgeStyle;rounded=0;orthogonalLoop=1;jettySize=auto;html=1;entryX=-0.053;entryY=0.673;entryDx=0;entryDy=0;entryPerimeter=0;" edge="1" parent="1" target="WhPX4swOmzl25VGrsaIu-265">
          <mxGeometry relative="1" as="geometry">
            <Array as="points">
              <mxPoint x="319" y="1679" />
              <mxPoint x="319" y="1828" />
            </Array>
            <mxPoint x="293.98275349237883" y="1679" as="sourcePoint" />
          </mxGeometry>
        </mxCell>
        <mxCell id="WhPX4swOmzl25VGrsaIu-222" style="edgeStyle=orthogonalEdgeStyle;rounded=0;orthogonalLoop=1;jettySize=auto;html=1;entryX=-0.004;entryY=0.543;entryDx=0;entryDy=0;entryPerimeter=0;" edge="1" parent="1" target="WhPX4swOmzl25VGrsaIu-271">
          <mxGeometry relative="1" as="geometry">
            <mxPoint x="546" y="1922" as="targetPoint" />
            <Array as="points">
              <mxPoint x="314" y="1684" />
              <mxPoint x="314" y="2082" />
            </Array>
            <mxPoint x="291.5518360947035" y="1684" as="sourcePoint" />
          </mxGeometry>
        </mxCell>
        <mxCell id="WhPX4swOmzl25VGrsaIu-223" style="edgeStyle=orthogonalEdgeStyle;rounded=0;orthogonalLoop=1;jettySize=auto;html=1;" edge="1" parent="1" target="WhPX4swOmzl25VGrsaIu-285">
          <mxGeometry relative="1" as="geometry">
            <Array as="points">
              <mxPoint x="290" y="2189" />
            </Array>
            <mxPoint x="290" y="1686.3303027798233" as="sourcePoint" />
          </mxGeometry>
        </mxCell>
        <mxCell id="WhPX4swOmzl25VGrsaIu-226" style="edgeStyle=orthogonalEdgeStyle;rounded=0;orthogonalLoop=1;jettySize=auto;html=1;" edge="1" parent="1" source="WhPX4swOmzl25VGrsaIu-228" target="WhPX4swOmzl25VGrsaIu-230">
          <mxGeometry relative="1" as="geometry">
            <Array as="points">
              <mxPoint x="415.5" y="1528" />
            </Array>
          </mxGeometry>
        </mxCell>
        <mxCell id="WhPX4swOmzl25VGrsaIu-227" style="edgeStyle=orthogonalEdgeStyle;rounded=0;orthogonalLoop=1;jettySize=auto;html=1;" edge="1" parent="1" source="WhPX4swOmzl25VGrsaIu-228" target="WhPX4swOmzl25VGrsaIu-232">
          <mxGeometry relative="1" as="geometry" />
        </mxCell>
        <mxCell id="WhPX4swOmzl25VGrsaIu-228" value="ADD 0" style="ellipse;whiteSpace=wrap;html=1;aspect=fixed;" vertex="1" parent="1">
          <mxGeometry x="384.5" y="1569" width="62" height="62" as="geometry" />
        </mxCell>
        <mxCell id="WhPX4swOmzl25VGrsaIu-229" value="+" style="text;html=1;align=center;verticalAlign=middle;resizable=0;points=[];autosize=1;strokeColor=none;fillColor=none;" vertex="1" parent="1">
          <mxGeometry x="315.5" y="1577" width="25" height="26" as="geometry" />
        </mxCell>
        <mxCell id="WhPX4swOmzl25VGrsaIu-230" value="ADD 1" style="ellipse;whiteSpace=wrap;html=1;aspect=fixed;" vertex="1" parent="1">
          <mxGeometry x="508.5" y="1492" width="62" height="62" as="geometry" />
        </mxCell>
        <mxCell id="WhPX4swOmzl25VGrsaIu-231" value="+" style="text;html=1;align=center;verticalAlign=middle;resizable=0;points=[];autosize=1;strokeColor=none;fillColor=none;" vertex="1" parent="1">
          <mxGeometry x="455.5" y="1503" width="25" height="26" as="geometry" />
        </mxCell>
        <mxCell id="WhPX4swOmzl25VGrsaIu-232" value="ADD 3" style="ellipse;whiteSpace=wrap;html=1;aspect=fixed;" vertex="1" parent="1">
          <mxGeometry x="508.5" y="1569" width="62" height="62" as="geometry" />
        </mxCell>
        <mxCell id="WhPX4swOmzl25VGrsaIu-233" value="=" style="text;html=1;align=center;verticalAlign=middle;resizable=0;points=[];autosize=1;strokeColor=none;fillColor=none;" vertex="1" parent="1">
          <mxGeometry x="459.5" y="1580" width="25" height="26" as="geometry" />
        </mxCell>
        <mxCell id="WhPX4swOmzl25VGrsaIu-234" value="ADD 0" style="ellipse;whiteSpace=wrap;html=1;aspect=fixed;" vertex="1" parent="1">
          <mxGeometry x="388" y="1572.5" width="55" height="55" as="geometry" />
        </mxCell>
        <mxCell id="WhPX4swOmzl25VGrsaIu-235" value="ADD 1" style="ellipse;whiteSpace=wrap;html=1;aspect=fixed;" vertex="1" parent="1">
          <mxGeometry x="512" y="1495.5" width="55" height="55" as="geometry" />
        </mxCell>
        <mxCell id="WhPX4swOmzl25VGrsaIu-236" value="ADD 2" style="ellipse;whiteSpace=wrap;html=1;aspect=fixed;" vertex="1" parent="1">
          <mxGeometry x="512" y="1572.5" width="55" height="55" as="geometry" />
        </mxCell>
        <mxCell id="WhPX4swOmzl25VGrsaIu-237" style="edgeStyle=orthogonalEdgeStyle;rounded=0;orthogonalLoop=1;jettySize=auto;html=1;" edge="1" parent="1" source="WhPX4swOmzl25VGrsaIu-240" target="WhPX4swOmzl25VGrsaIu-242">
          <mxGeometry relative="1" as="geometry">
            <Array as="points">
              <mxPoint x="592" y="1596" />
            </Array>
          </mxGeometry>
        </mxCell>
        <mxCell id="WhPX4swOmzl25VGrsaIu-238" style="edgeStyle=orthogonalEdgeStyle;rounded=0;orthogonalLoop=1;jettySize=auto;html=1;" edge="1" parent="1" source="WhPX4swOmzl25VGrsaIu-240" target="WhPX4swOmzl25VGrsaIu-244">
          <mxGeometry relative="1" as="geometry" />
        </mxCell>
        <mxCell id="WhPX4swOmzl25VGrsaIu-239" style="edgeStyle=orthogonalEdgeStyle;rounded=0;orthogonalLoop=1;jettySize=auto;html=1;" edge="1" parent="1" source="WhPX4swOmzl25VGrsaIu-240" target="WhPX4swOmzl25VGrsaIu-249">
          <mxGeometry relative="1" as="geometry">
            <Array as="points">
              <mxPoint x="592" y="1779" />
            </Array>
          </mxGeometry>
        </mxCell>
        <mxCell id="WhPX4swOmzl25VGrsaIu-240" value="ADD 0" style="ellipse;whiteSpace=wrap;html=1;aspect=fixed;" vertex="1" parent="1">
          <mxGeometry x="561" y="1637" width="62" height="62" as="geometry" />
        </mxCell>
        <mxCell id="WhPX4swOmzl25VGrsaIu-241" value="-" style="text;html=1;align=center;verticalAlign=middle;resizable=0;points=[];autosize=1;strokeColor=none;fillColor=none;" vertex="1" parent="1">
          <mxGeometry x="492" y="1644" width="22" height="26" as="geometry" />
        </mxCell>
        <mxCell id="WhPX4swOmzl25VGrsaIu-242" value="ADD 1" style="ellipse;whiteSpace=wrap;html=1;aspect=fixed;" vertex="1" parent="1">
          <mxGeometry x="685" y="1560" width="62" height="62" as="geometry" />
        </mxCell>
        <mxCell id="WhPX4swOmzl25VGrsaIu-243" value="&amp;gt;" style="text;html=1;align=center;verticalAlign=middle;resizable=0;points=[];autosize=1;strokeColor=none;fillColor=none;" vertex="1" parent="1">
          <mxGeometry x="632" y="1571" width="25" height="26" as="geometry" />
        </mxCell>
        <mxCell id="WhPX4swOmzl25VGrsaIu-244" value="ADD 3" style="ellipse;whiteSpace=wrap;html=1;aspect=fixed;" vertex="1" parent="1">
          <mxGeometry x="685" y="1637" width="62" height="62" as="geometry" />
        </mxCell>
        <mxCell id="WhPX4swOmzl25VGrsaIu-245" value="=" style="text;html=1;align=center;verticalAlign=middle;resizable=0;points=[];autosize=1;strokeColor=none;fillColor=none;" vertex="1" parent="1">
          <mxGeometry x="636" y="1648" width="25" height="26" as="geometry" />
        </mxCell>
        <mxCell id="WhPX4swOmzl25VGrsaIu-246" value="SUB 0" style="ellipse;whiteSpace=wrap;html=1;aspect=fixed;" vertex="1" parent="1">
          <mxGeometry x="564.5" y="1640.5" width="55" height="55" as="geometry" />
        </mxCell>
        <mxCell id="WhPX4swOmzl25VGrsaIu-247" value="SUB 1" style="ellipse;whiteSpace=wrap;html=1;aspect=fixed;" vertex="1" parent="1">
          <mxGeometry x="688.5" y="1563.5" width="55" height="55" as="geometry" />
        </mxCell>
        <mxCell id="WhPX4swOmzl25VGrsaIu-248" value="SUB 2" style="ellipse;whiteSpace=wrap;html=1;aspect=fixed;" vertex="1" parent="1">
          <mxGeometry x="688.5" y="1640.5" width="55" height="55" as="geometry" />
        </mxCell>
        <mxCell id="WhPX4swOmzl25VGrsaIu-249" value="ADD 0" style="ellipse;whiteSpace=wrap;html=1;aspect=fixed;" vertex="1" parent="1">
          <mxGeometry x="687" y="1748" width="62" height="62" as="geometry" />
        </mxCell>
        <mxCell id="WhPX4swOmzl25VGrsaIu-250" value="SUB 3" style="ellipse;whiteSpace=wrap;html=1;aspect=fixed;" vertex="1" parent="1">
          <mxGeometry x="690.5" y="1751.5" width="55" height="55" as="geometry" />
        </mxCell>
        <mxCell id="WhPX4swOmzl25VGrsaIu-251" value="-" style="text;html=1;align=center;verticalAlign=middle;resizable=0;points=[];autosize=1;strokeColor=none;fillColor=none;" vertex="1" parent="1">
          <mxGeometry x="633.5" y="1758" width="22" height="26" as="geometry" />
        </mxCell>
        <mxCell id="WhPX4swOmzl25VGrsaIu-252" style="edgeStyle=orthogonalEdgeStyle;rounded=0;orthogonalLoop=1;jettySize=auto;html=1;" edge="1" parent="1" source="WhPX4swOmzl25VGrsaIu-253" target="WhPX4swOmzl25VGrsaIu-255">
          <mxGeometry relative="1" as="geometry" />
        </mxCell>
        <mxCell id="WhPX4swOmzl25VGrsaIu-253" value="ADD 0" style="ellipse;whiteSpace=wrap;html=1;aspect=fixed;" vertex="1" parent="1">
          <mxGeometry x="390" y="1708.5" width="62" height="62" as="geometry" />
        </mxCell>
        <mxCell id="WhPX4swOmzl25VGrsaIu-254" value="*" style="text;html=1;align=center;verticalAlign=middle;resizable=0;points=[];autosize=1;strokeColor=none;fillColor=none;" vertex="1" parent="1">
          <mxGeometry x="336" y="1722.5" width="23" height="26" as="geometry" />
        </mxCell>
        <mxCell id="WhPX4swOmzl25VGrsaIu-255" value="ADD 3" style="ellipse;whiteSpace=wrap;html=1;aspect=fixed;" vertex="1" parent="1">
          <mxGeometry x="514" y="1708.5" width="62" height="62" as="geometry" />
        </mxCell>
        <mxCell id="WhPX4swOmzl25VGrsaIu-256" value="=" style="text;html=1;align=center;verticalAlign=middle;resizable=0;points=[];autosize=1;strokeColor=none;fillColor=none;" vertex="1" parent="1">
          <mxGeometry x="465" y="1719.5" width="25" height="26" as="geometry" />
        </mxCell>
        <mxCell id="WhPX4swOmzl25VGrsaIu-257" value="MUL 0" style="ellipse;whiteSpace=wrap;html=1;aspect=fixed;" vertex="1" parent="1">
          <mxGeometry x="393.5" y="1712" width="55" height="55" as="geometry" />
        </mxCell>
        <mxCell id="WhPX4swOmzl25VGrsaIu-258" value="MUL 1" style="ellipse;whiteSpace=wrap;html=1;aspect=fixed;" vertex="1" parent="1">
          <mxGeometry x="517.5" y="1712" width="55" height="55" as="geometry" />
        </mxCell>
        <mxCell id="WhPX4swOmzl25VGrsaIu-259" style="edgeStyle=orthogonalEdgeStyle;rounded=0;orthogonalLoop=1;jettySize=auto;html=1;" edge="1" parent="1" source="WhPX4swOmzl25VGrsaIu-260" target="WhPX4swOmzl25VGrsaIu-261">
          <mxGeometry relative="1" as="geometry" />
        </mxCell>
        <mxCell id="WhPX4swOmzl25VGrsaIu-260" value="ADD 0" style="ellipse;whiteSpace=wrap;html=1;aspect=fixed;" vertex="1" parent="1">
          <mxGeometry x="390" y="1787.5" width="62" height="62" as="geometry" />
        </mxCell>
        <mxCell id="WhPX4swOmzl25VGrsaIu-261" value="ADD 3" style="ellipse;whiteSpace=wrap;html=1;aspect=fixed;" vertex="1" parent="1">
          <mxGeometry x="514" y="1787.5" width="62" height="62" as="geometry" />
        </mxCell>
        <mxCell id="WhPX4swOmzl25VGrsaIu-262" value="=" style="text;html=1;align=center;verticalAlign=middle;resizable=0;points=[];autosize=1;strokeColor=none;fillColor=none;" vertex="1" parent="1">
          <mxGeometry x="465" y="1798.5" width="25" height="26" as="geometry" />
        </mxCell>
        <mxCell id="WhPX4swOmzl25VGrsaIu-263" style="edgeStyle=orthogonalEdgeStyle;rounded=0;orthogonalLoop=1;jettySize=auto;html=1;" edge="1" parent="1" source="WhPX4swOmzl25VGrsaIu-265">
          <mxGeometry relative="1" as="geometry">
            <mxPoint x="521.1138721247418" y="1918" as="targetPoint" />
            <Array as="points">
              <mxPoint x="433" y="1918" />
            </Array>
          </mxGeometry>
        </mxCell>
        <mxCell id="WhPX4swOmzl25VGrsaIu-264" style="edgeStyle=orthogonalEdgeStyle;rounded=0;orthogonalLoop=1;jettySize=auto;html=1;entryX=0.002;entryY=0.568;entryDx=0;entryDy=0;entryPerimeter=0;" edge="1" parent="1" source="WhPX4swOmzl25VGrsaIu-265" target="WhPX4swOmzl25VGrsaIu-292">
          <mxGeometry relative="1" as="geometry">
            <Array as="points">
              <mxPoint x="426" y="1989" />
            </Array>
          </mxGeometry>
        </mxCell>
        <mxCell id="WhPX4swOmzl25VGrsaIu-265" value="DIV 0" style="ellipse;whiteSpace=wrap;html=1;aspect=fixed;" vertex="1" parent="1">
          <mxGeometry x="393.5" y="1791" width="55" height="55" as="geometry" />
        </mxCell>
        <mxCell id="WhPX4swOmzl25VGrsaIu-266" value="DIV 1" style="ellipse;whiteSpace=wrap;html=1;aspect=fixed;" vertex="1" parent="1">
          <mxGeometry x="517.5" y="1791" width="55" height="55" as="geometry" />
        </mxCell>
        <mxCell id="WhPX4swOmzl25VGrsaIu-267" value="/" style="text;html=1;align=center;verticalAlign=middle;resizable=0;points=[];autosize=1;strokeColor=none;fillColor=none;" vertex="1" parent="1">
          <mxGeometry x="337" y="1805.5" width="21" height="26" as="geometry" />
        </mxCell>
        <mxCell id="WhPX4swOmzl25VGrsaIu-268" style="edgeStyle=orthogonalEdgeStyle;rounded=0;orthogonalLoop=1;jettySize=auto;html=1;" edge="1" parent="1" source="WhPX4swOmzl25VGrsaIu-271" target="WhPX4swOmzl25VGrsaIu-272">
          <mxGeometry relative="1" as="geometry">
            <Array as="points">
              <mxPoint x="642" y="2007" />
            </Array>
          </mxGeometry>
        </mxCell>
        <mxCell id="WhPX4swOmzl25VGrsaIu-269" style="edgeStyle=orthogonalEdgeStyle;rounded=0;orthogonalLoop=1;jettySize=auto;html=1;" edge="1" parent="1" source="WhPX4swOmzl25VGrsaIu-271" target="WhPX4swOmzl25VGrsaIu-274">
          <mxGeometry relative="1" as="geometry" />
        </mxCell>
        <mxCell id="WhPX4swOmzl25VGrsaIu-270" style="edgeStyle=orthogonalEdgeStyle;rounded=0;orthogonalLoop=1;jettySize=auto;html=1;" edge="1" parent="1" source="WhPX4swOmzl25VGrsaIu-271" target="WhPX4swOmzl25VGrsaIu-279">
          <mxGeometry relative="1" as="geometry">
            <Array as="points">
              <mxPoint x="642" y="2190" />
            </Array>
          </mxGeometry>
        </mxCell>
        <mxCell id="WhPX4swOmzl25VGrsaIu-271" value="ADD 0" style="ellipse;whiteSpace=wrap;html=1;aspect=fixed;" vertex="1" parent="1">
          <mxGeometry x="611" y="2048" width="62" height="62" as="geometry" />
        </mxCell>
        <mxCell id="WhPX4swOmzl25VGrsaIu-272" value="ADD 1" style="ellipse;whiteSpace=wrap;html=1;aspect=fixed;" vertex="1" parent="1">
          <mxGeometry x="735" y="1971" width="62" height="62" as="geometry" />
        </mxCell>
        <mxCell id="WhPX4swOmzl25VGrsaIu-273" value="&amp;gt;" style="text;html=1;align=center;verticalAlign=middle;resizable=0;points=[];autosize=1;strokeColor=none;fillColor=none;" vertex="1" parent="1">
          <mxGeometry x="682" y="1982" width="25" height="26" as="geometry" />
        </mxCell>
        <mxCell id="WhPX4swOmzl25VGrsaIu-274" value="ADD 3" style="ellipse;whiteSpace=wrap;html=1;aspect=fixed;" vertex="1" parent="1">
          <mxGeometry x="735" y="2048" width="62" height="62" as="geometry" />
        </mxCell>
        <mxCell id="WhPX4swOmzl25VGrsaIu-275" value="=" style="text;html=1;align=center;verticalAlign=middle;resizable=0;points=[];autosize=1;strokeColor=none;fillColor=none;" vertex="1" parent="1">
          <mxGeometry x="686" y="2059" width="25" height="26" as="geometry" />
        </mxCell>
        <mxCell id="WhPX4swOmzl25VGrsaIu-276" value="MOD 0" style="ellipse;whiteSpace=wrap;html=1;aspect=fixed;" vertex="1" parent="1">
          <mxGeometry x="614.5" y="2051.5" width="55" height="55" as="geometry" />
        </mxCell>
        <mxCell id="WhPX4swOmzl25VGrsaIu-277" value="MOD 1" style="ellipse;whiteSpace=wrap;html=1;aspect=fixed;" vertex="1" parent="1">
          <mxGeometry x="738.5" y="1974.5" width="55" height="55" as="geometry" />
        </mxCell>
        <mxCell id="WhPX4swOmzl25VGrsaIu-278" value="MOD 2" style="ellipse;whiteSpace=wrap;html=1;aspect=fixed;" vertex="1" parent="1">
          <mxGeometry x="738.5" y="2051.5" width="55" height="55" as="geometry" />
        </mxCell>
        <mxCell id="WhPX4swOmzl25VGrsaIu-279" value="ADD 0" style="ellipse;whiteSpace=wrap;html=1;aspect=fixed;" vertex="1" parent="1">
          <mxGeometry x="737" y="2159" width="62" height="62" as="geometry" />
        </mxCell>
        <mxCell id="WhPX4swOmzl25VGrsaIu-280" value="MOD 3" style="ellipse;whiteSpace=wrap;html=1;aspect=fixed;" vertex="1" parent="1">
          <mxGeometry x="740.5" y="2162.5" width="55" height="55" as="geometry" />
        </mxCell>
        <mxCell id="WhPX4swOmzl25VGrsaIu-281" value=":" style="text;html=1;align=center;verticalAlign=middle;resizable=0;points=[];autosize=1;strokeColor=none;fillColor=none;" vertex="1" parent="1">
          <mxGeometry x="684.5" y="2169" width="21" height="26" as="geometry" />
        </mxCell>
        <mxCell id="WhPX4swOmzl25VGrsaIu-282" value="%" style="text;html=1;align=center;verticalAlign=middle;resizable=0;points=[];autosize=1;strokeColor=none;fillColor=none;" vertex="1" parent="1">
          <mxGeometry x="329" y="2051.5" width="29" height="26" as="geometry" />
        </mxCell>
        <mxCell id="WhPX4swOmzl25VGrsaIu-283" value="" style="endArrow=none;dashed=1;html=1;dashPattern=1 3;strokeWidth=2;rounded=0;" edge="1" parent="1">
          <mxGeometry width="50" height="50" relative="1" as="geometry">
            <mxPoint x="343.5" y="2127" as="sourcePoint" />
            <mxPoint x="390" y="2127" as="targetPoint" />
          </mxGeometry>
        </mxCell>
        <mxCell id="WhPX4swOmzl25VGrsaIu-284" style="edgeStyle=orthogonalEdgeStyle;rounded=0;orthogonalLoop=1;jettySize=auto;html=1;" edge="1" parent="1" source="WhPX4swOmzl25VGrsaIu-285" target="WhPX4swOmzl25VGrsaIu-287">
          <mxGeometry relative="1" as="geometry" />
        </mxCell>
        <mxCell id="WhPX4swOmzl25VGrsaIu-285" value="POU 0" style="ellipse;whiteSpace=wrap;html=1;aspect=fixed;" vertex="1" parent="1">
          <mxGeometry x="403" y="2156" width="62" height="62" as="geometry" />
        </mxCell>
        <mxCell id="WhPX4swOmzl25VGrsaIu-286" value="#" style="text;html=1;align=center;verticalAlign=middle;resizable=0;points=[];autosize=1;strokeColor=none;fillColor=none;" vertex="1" parent="1">
          <mxGeometry x="323" y="2159" width="25" height="26" as="geometry" />
        </mxCell>
        <mxCell id="WhPX4swOmzl25VGrsaIu-287" value="POU 1" style="ellipse;whiteSpace=wrap;html=1;aspect=fixed;" vertex="1" parent="1">
          <mxGeometry x="527" y="2156" width="62" height="62" as="geometry" />
        </mxCell>
        <mxCell id="WhPX4swOmzl25VGrsaIu-288" value="#" style="text;html=1;align=center;verticalAlign=middle;resizable=0;points=[];autosize=1;strokeColor=none;fillColor=none;" vertex="1" parent="1">
          <mxGeometry x="483.5" y="2159" width="25" height="26" as="geometry" />
        </mxCell>
        <mxCell id="WhPX4swOmzl25VGrsaIu-289" value="ADD 3" style="ellipse;whiteSpace=wrap;html=1;aspect=fixed;" vertex="1" parent="1">
          <mxGeometry x="521" y="1888" width="62" height="62" as="geometry" />
        </mxCell>
        <mxCell id="WhPX4swOmzl25VGrsaIu-290" value="ANN 0" style="ellipse;whiteSpace=wrap;html=1;aspect=fixed;" vertex="1" parent="1">
          <mxGeometry x="524.5" y="1891.5" width="55" height="55" as="geometry" />
        </mxCell>
        <mxCell id="WhPX4swOmzl25VGrsaIu-291" value="/" style="text;html=1;align=center;verticalAlign=middle;resizable=0;points=[];autosize=1;strokeColor=none;fillColor=none;" vertex="1" parent="1">
          <mxGeometry x="469" y="1895" width="21" height="26" as="geometry" />
        </mxCell>
        <mxCell id="WhPX4swOmzl25VGrsaIu-292" value="ADD 3" style="ellipse;whiteSpace=wrap;html=1;aspect=fixed;" vertex="1" parent="1">
          <mxGeometry x="521" y="1954" width="62" height="62" as="geometry" />
        </mxCell>
        <mxCell id="WhPX4swOmzl25VGrsaIu-293" value="ANN 1" style="ellipse;whiteSpace=wrap;html=1;aspect=fixed;" vertex="1" parent="1">
          <mxGeometry x="524.5" y="1957.5" width="55" height="55" as="geometry" />
        </mxCell>
        <mxCell id="WhPX4swOmzl25VGrsaIu-294" value="*" style="text;html=1;align=center;verticalAlign=middle;resizable=0;points=[];autosize=1;strokeColor=none;fillColor=none;" vertex="1" parent="1">
          <mxGeometry x="464" y="1963" width="23" height="26" as="geometry" />
        </mxCell>
      </root>
    </mxGraphModel>
  </diagram>
</mxfile>
